<?xml version="1.0" encoding="utf-8"?>
<!-- Generator: Adobe Illustrator 21.0.2, SVG Export Plug-In . SVG Version: 6.00 Build 0)  -->
<svg version="1.1" xmlns="http://www.w3.org/2000/svg" xmlns:xlink="http://www.w3.org/1999/xlink" x="0px" y="0px"
	 viewBox="0 0 1277.5 800" style="enable-background:new 0 0 1277.5 800;" xml:space="preserve">
<style type="text/css">
	.st0{fill:#1A76AF;stroke:#FFFFFF;stroke-width:0.1417;}
	.st1{fill:#0071BB;stroke:#FFFFFF;stroke-width:0.25;stroke-miterlimit:10;}
</style>
<g id="Background">
</g>
<g id="Freepik">
</g>
<g id="Objects">
	<path class="st0" d="M-40.5,632.4c-0.4,0.3-3.2,0.2-2.7,0.8c0.5,0.6,2.9,0.3,4,0.9c1.1,0.6,2.6,0.1,2.6-0.4
		C-36.5,633.3-40,632.1-40.5,632.4z"/>
	<g>
		<path class="st1" d="M332,702.7c2.4,0,1.2-3.5,1.6-7.5c0.4-3.9,0.4-3.2,4-3.2c3.6,0,7.2-2,7.2-4.3c0-2.4,15.5-0.8,17.9-0.8
			c2.4,0,3.2-2.8,2.8-4.7c-0.4-2-2.4-7.9-4.8-8.3c-2.4-0.4-0.8-6.3-0.8-11.1c0-4.7-0.8-9.1-3.6-12.6c-0.6-0.8-1.3-2.1-2-3.7
			c-4.3,0.1-9.6-3.2-14.1-3.3c-6.3-0.2-16,3.1-20.7-2.1c-4.7-5.2-7.9-6.8-11.4-5.2c-3.4,1.6-9.7,19.5-13.3,24.7
			c-3.6,5.2-13.7,8.8-18.6,8.8c-4.9,0-5.4,7.3-9.2,10.4c-3.8,3-2.3,7.9-6.9,11.5"/>
		<path class="st1" d="M483.4,638.3c2.9,4.3-0.7,11.5-3.6,12.9c-2.9,1.4-5,7.9-7.9,7.9c-2.9,0,0,10.7,5,12.9c5,2.1,5,5.7,5,7.9
			c0,2.1,7.2,4.3,9.4,7.2c2.2,2.9,5.8,16.5,5.8,21.5c0,1.3,0.4,2.3,1.1,3.2c1.9-1.3,4.1-2.7,5.1-4.4c1.6-3,2.9-8.2,2.2-9.7
			c-0.7-1.4-0.5-3.9,1.1-5.4c1.6-1.4,8.1-8.2,9.4-8.8c1.3-0.5,5.4,0.2,5.2-3.8c-0.1-1.6,0.1-4,0.4-6.3c-2.9-1.9-4.7-4.1-4.7-5.1
			c0-2.3-3.2-6.3-5-4.1c-1.8,2.1-8.7,0.4-9.6-4.1c-0.9-4.5,4.5-4.3,9.6-8.4c5-4.1,5.8-12,0.4-16.3c-5.4-4.3-1.6-6.6,2.2-10.6
			c3.8-3.9,0.4-6.1-1.6-4.3c-2,1.8-5.2,2.3-5.8-2c-0.5-4.3-12.3-5-16.8-0.9c-1.6,1.4-4,1.9-6.6,1.9
			C482.4,626.5,481.4,635.4,483.4,638.3z"/>
		<path class="st1" d="M501,725.3c-2.4-5.2-5.9-9.3-5.6-11.1c0.2-0.8,1.3-1.6,2.7-2.5c-0.6-0.9-1.1-1.9-1.1-3.2
			c0-5-3.6-18.6-5.8-21.5c-2.2-2.9-9.4-5-9.4-7.2c0-2.2,0-5.7-5-7.9c-5-2.2-7.9-12.9-5-12.9c2.9,0,5-6.5,7.9-7.9
			c2.9-1.4,6.5-8.6,3.6-12.9c-1.9-2.9-1-11.8,0.1-18.9c-4.8,0-10.1-1.8-11.5-2.2c-2.2-0.7-8.5,1.1-12.4,1.2
			c-4,0.2-13.7,6.5-16.9,3.4c-3.2-3-36.4,2.3-45.8,2.7c-9.4,0.4-13.3,10-18.9,10c-5.6,0-14.4,4.7-19.1,9.8c-1.3,1.5-2.9,2-4.6,2
			c0.7,1.6,1.4,3,2,3.7c2.8,3.5,3.6,7.9,3.6,12.6c0,4.7-1.6,10.7,0.8,11.1c2.4,0.4,4.4,6.3,4.8,8.3c0.4,2-0.4,4.7-2.8,4.7
			c-2.4,0-17.9-1.6-17.9,0.8c0,2.4-3.6,4.3-7.2,4.3c-3.6,0-3.6-0.8-4,3.2c-0.4,4,0.8,7.5-1.6,7.5"/>
		<path class="st1" d="M677.2,724.8c0-8.2-3.8-13.4,0-17.9c3.8-4.5-1.5-6.7,1.5-14.9c0.4-1,0.7-2,1.1-3c-0.1-0.2-0.3-0.3-0.3-0.5
			c-0.9-2.5-5.8-2.7-16.4-4.3c-10.6-1.6-6.7-8.8-18.6-9.5c-11.9-0.7-27,8.8-27.2,13.8c-0.2,5,5.6,10.6,1.6,15.8
			c-4,5.2-12.6,5.7-18.7,0.2c-6.1-5.6-15.1-8.1-22.5-8.1c-7.4,0-12.6-4.7-12.1-8.6c0.5-3.9-1.8-5.7-7.9-7
			c-6.1-1.3-11.4-6.3-22.2-4.5c-5.8,1-10.7-0.8-14.1-2.9c-0.2,2.3-0.4,4.7-0.4,6.3c0.2,3.9-4,3.2-5.2,3.8c-1.3,0.5-7.7,7.3-9.4,8.8
			c-1.6,1.4-1.8,3.9-1.1,5.4c0.7,1.4-0.5,6.6-2.2,9.7c-1.6,3-7.4,5.2-7.8,7c-0.4,1.8,3.2,5.9,5.6,11.1"/>
		<path class="st1" d="M781.6,746.5c0.2-5-2.7-5.6-8.3-13.4c-5.6-7.9-7.2-21.7-5.6-22.2c1.6-0.5,6.3,11.6,8.1,15.6
			c1.8,3.9,7.9,15.9,12.3,15.9s6-18.1,7.4-17.2c0.1,0.1,0.2,0.3,0.3,0.5l0.5-3.3l1.8-4.9l-8.8-21.3c-0.6,1-1.1,1.7-1.4,1.9
			c-1.4,1.4-7.4-2.1-13-0.7c-5.6,1.4-9.9-0.5-15.3-3.2c-5.4-2.7-23.1,0.7-25.4,4.1c-2.3,3.4-8.3,3.4-13.7,1.3
			c-5.4-2.2-12.4-5.4-22.3-6.3c-9.3-0.8-16.7-2.2-18.4-4.4c-0.4,1-0.8,2-1.1,3c-3,8.2,2.3,10.5-1.5,14.9c-3.8,4.5,0,9.7,0,17.9"/>
		<path class="st1" d="M816,658.6c2.3-2,3.7-9.9-5.9-9.4c-0.1,0.5-0.1,1-0.1,1.6c0,3.6-5.8,11.2-9.1,18.2l5.7,2.4
			C809.6,666.1,814.1,660.2,816,658.6z"/>
		<path class="st1" d="M875.6,627.6c1.4-3.8,7.7-5.7,7.7-5.7l7.2-5.3l-4.8-1.4c0,0-6.3,2.4-13.5,1.9c-7.2-0.5-8.7,4.8-16.4,4.8
			c-7.7,0-12,1.9-14-0.5c-1.9-2.4-2.4-1-7.7,1.4c-5.3,2.4-8.7,1.9-11.1,0c-2.4-1.9-4.3,0.5-4.8,2.9c-0.5,2.2,0.3,7.4-7.2,8.4
			c-0.5,2.2-1.4,4.5-0.1,6.1c1.9,2.4-0.4,5.2-0.9,9c9.6-0.4,8.2,7.4,5.9,9.4c-1.8,1.6-6.3,7.5-9.3,12.7l0.6,0.3l1,4.3l11.1,5.7
			c0,0,8.2-5.7,11.6-6.2"/>
		<path class="st1" d="M802.3,679.7c-1.8,0.7-2.6,7.7-2.6,8.8c0,0.8,1.1,4.3,4.5,7.7c0.7-5.3,0.9-12.3,1.3-14.2
			c0.1-0.5,0.3-1.3,0.4-2.4C804.2,679.5,802.8,679.5,802.3,679.7z"/>
		<path class="st1" d="M797.5,718.9c0.4,0.2,0.8,0.5,1.3,0.7c1-7.3,2.6-15.8,3.9-17.6c0.7-1,1.2-3.2,1.6-5.9
			c-3.4-3.4-4.5-6.9-4.5-7.7c0-1.1,0.7-8,2.6-8.8c0.5-0.2,1.9-0.2,3.7-0.1c0.3-2.2,0.7-5.2,1-8.1l-6.2-2.6c-0.9,2-1.7,3.9-1.9,5.7
			c-1,6.5-6.8,17.1-9.6,21.6l8.8,21.3L797.5,718.9z"/>
		<path class="st1" d="M847.4,674.1c-0.5-1.6-0.8-3.7-1-5.9c-7.6,3.9-14.3,7.1-15.6,7.3c-3.4,0.5-11.6,6.2-11.6,6.2l-11.1-5.7
			l-1-4.3l-0.2-0.1c-0.5,4.1-1,8.9-1.4,10.4c-0.7,2.9-0.7,17.2-2.9,20.1c-1.3,1.7-2.9,10.3-3.9,17.6c4,2.1,8.6,4.4,10.9,4.7
			c4.3,0.5,9.6-4.3,9.6-7.2"/>
		<path class="st1" d="M825.1,697.5"/>
		<path class="st1" d="M929.4,537.9c-2.2,0-2.2-1.6-4.3-1.6c-2.2,0-10.3,0-12.4,1.6c-2.2,1.6-4.9-3.8-7.6-3.8c-2.7,0-6-2.7-7.6-4.8
			c-1.6-2.1-15.1,1.1-18.9-1.6c-3.8-2.7-10.8-4.8-14.6-4.3c-1,0.1-2.6,1-4.6,2.1c7.1,4.1,17.4,3,18.8,10.4c1.6,8.6,6.5,5.2,4.7,12.5
			c-0.4,1.4-1.4,2.8-2.8,4.1c5.6,0.4,10.9,0.4,12.7-0.4c4-1.8,5.4,2.5,8.6,6.8c0.2,0.3,0.4,0.5,0.5,0.8c4.4-0.7,7.8-2,12.3-2.5
			c3.3-0.4,7.5,0.3,10.8,1.1c-0.6-1-1-2-0.6-2.6"/>
		<path class="st1" d="M913.6,607.1c-1.9-0.5,1-11,0-12.9c-1-1.9-3.4-10-0.5-10c2.6,0-0.3-5.9,3.2-6.2c-0.7-2-1.5-3.9-2.2-4.5
			c-1.8-1.4-7.2,1.4-9.4-3.9c-2.2-5.4,0-6.1-3.3-10.4c-3.2-4.3-4.7-8.6-8.6-6.8c-1.8,0.8-7.1,0.8-12.7,0.4
			c-5.8,5.3-18.7,8.9-22.6,7.5c-4.9-1.8-14.2,0.5-21.3,0.5c-7,0-9-5-14.4-4.7c-5.4,0.4-5.4-4.8-10.8-4.8s-1.3-2.7-18.2-4.8
			c-16.9-2.1-31.5,6.6-36.9,11.3c-5.4,4.7-24.9,0.2-26.7,1.4c-1.8,1.3,0.4,6.8-6.1,9.3c-6.5,2.5-20.7,0-25.6,2.2
			c-4.9,2.1-6.7,9.3-2.5,9c4.1-0.4,6.3,1.6,5.1,3.4c-1.3,1.8,3.4,6.8,1.1,9c-2.3,2.1-2.5,6.3,0.4,8.4c2.9,2.2,3.4,6.1,0,6.6
			c-3.4,0.5,5.9,4.5,6.1,6.3c0.2,1.8,7.9,2.7,7.9,4.8c0,2.1,2.3,2.9,6.1,1.8c3.8-1.1,5.2,4.1,7.6,7.7c2.3,3.6,15.7,1.1,15.7-2.9
			s4-5,9.9-4.5c6,0.5,13.7,8.6,16.6,9.7c2.9,1.1,8.8-2.1,12.6-2.1c3.8,0,9.2-5.9,11.4-7.2c2.2-1.2,5.9,4.1,9.4,2.3
			c3.4-1.8,7.2-3.8,9.4-2.5c2.2,1.3-5.2,6.8-3.2,9.7c0.8,1.2,0.6,2.6,0.3,4.1c7.5-1,6.8-6.2,7.2-8.4c0.5-2.4,2.4-4.8,4.8-2.9
			c2.4,1.9,5.8,2.4,11.1,0c5.3-2.4,5.8-3.8,7.7-1.4c1.9,2.4,6.3,0.5,14,0.5c7.7,0,9.1-5.3,16.4-4.8c7.2,0.5,13.5-1.9,13.5-1.9
			l4.6,1.4c1.9-1.7,1.7-3.6,5.4-4.1c5.8-0.7,7.9,3.6,10.8,2.2c2.9-1.4,12,8.3,12.9,2C919.9,615.2,915.5,607.5,913.6,607.1z
			 M710.6,560.9c4.3-1.6,14.1,0.5,16.4-1.6c2.3-2.1-6.1-4.8-9.2-7.3c-1.8-1.5-2.4-4.2-3-6.3c-1.4,1-3.3,1.7-4.9,0.9
			c-3.2-1.6-11.1-0.5-12.4,0c-1.4,0.5,1.1,5.1,1.1,8.1c0,3-3.5,3.8-3.5,5.6c0,1.5-1.3,2.4-2.9,4.2c2.4,1.8,4.7,3.5,7.1,3.5
			C704.3,567.9,706.3,562.5,710.6,560.9z"/>
		<path class="st1" d="M553.6,362.5c0.8,2.1,1.6,9.7-0.3,12.6c-1.9,3-1.1,3.8,0.8,4.8c1.9,1.1,2.7,3.8,2.7,5.9
			c0,2.1,1.3,1.9,1.6,6.5c0.3,4.6,1.4,7.8,3,9.7c1.3,1.5,1,3.7,0.4,5.4c2.3,1.7,4.8,3.3,7.1,4.1c5.6,2,7.7,3.6,8,5.6
			c0.4,2,5.2,5.6,6.5,2.8c1.2-2.8,4.4-1.2,6.8-1.2c2.4,0,2.8,2.8,3.2,4.4c0.4,1.6,6,0.8,8.1,2c2,1.2,2.8,5.6,5.6,7.2
			c2.8,1.6,5.2-2,7.3-0.8c2,1.2,7.2,2.4,10.5,1.2c3.2-1.2,5.2,1.2,9.3,0.8c4-0.4,9.3,1.2,10.5,2.4c0.6,0.6,4,1.3,7.1,1.7
			c0.8-1.6-0.8-6.7-0.5-8c0.3-1.3,9.7-9.7,11.4-11.6c1.6-1.9,4.1-1.9,5.4-4.3c1.4-2.4-3.8-10.2-4.9-11.8c-1.1-1.6-1.6-8.1-0.8-10.8
			c0.8-2.7-4.1-4.3-4.1-6.2c0-1.9,4.6-5.1,7-6.2c2.4-1.1,1.6-8.6-0.5-10.5c-2.2-1.9-3.2-5.4-1.9-9.1c1.4-3.8-8.1-6.7-9.5-6.7
			c-0.2,0-0.4-0.2-0.4-0.6c-8.4,1.6-30.1-0.7-31.7-1.3c-1.1-0.4-3.8-1.4-6.2-2.2c-1.1,1.8-3.3,3.4-6.7,3.4c-5.2,0-5.6-5.2-5.8-7.5
			c-0.2-2.3-21.1,2-26.7,7.5c-5.6,5.6-18.6,3.4-18.9,6.4c-0.3,2.2-2.2,3.4-3.5,2.7C553.5,361.5,553.5,362.1,553.6,362.5z"/>
		<path class="st1" d="M601.4,535.4c-0.5-2.4,7.3-13.5,9.2-13.5c1.6,0,2.2-10.6,1.5-16.2c-6-4.1-11-5.5-11-5.5s-16.1-0.8-18.8-1.9
			c-2.7-1.1-5.4,3.5-7.8,1.6c-2.4-1.9-5.9,0.5-5.4,3.2c0.5,2.7,5.6,4.3,5.6,8.3c0,4,10.2,9.9,10,12c-0.2,1.5,6.1,5.6,9.9,11.1
			c2,1.3,4.1,2.9,6.3,4.6C601.3,537.3,601.5,536,601.4,535.4z"/>
		<path class="st1" d="M584.7,523.4c0.3-2.1-10-8-10-12c0-4-5.1-5.6-5.6-8.3c-0.5-2.7,3-5.1,5.4-3.2c2.4,1.9,5.1-2.7,7.8-1.6
			c2.7,1.1,18.8,1.9,18.8,1.9s5,1.4,11,5.5c-0.1-1.1-0.3-2-0.6-2.6c-1.4-3.4,0-7.2-3.9-8.7c-2-0.7-2.8-4.2-3.2-7.3
			c-1.8,0.6-3.4,1-4.2,1.2c-3.2,0.8-10.1,0.4-12.5-2.8c-1.8-2.4-7.4-5.9-10.1-7.5c-1.1,1-5.4,4.6-7.3,4.8c-2.2,0.3-0.8,5.9-3,5.9
			c-2.2,0-3.8,3.8-4.3,5.4c-0.5,1.6-5.4-1.1-7.6-0.3c-1.5,0.6-6.1,1.3-8.6,1.6c0.4,2.4,0.2,5.2,2.2,5.2c3.2,0,9.2-0.4,9.4,3.9
			c0.2,4.3,7.9,13.8,10.8,17c2.9,3.2,9.4,2.5,9.7,5.2c0.4,2.7,5.1,5.2,10.5,5.6c1.5,0.1,3.2,0.9,5.1,2.1
			C590.9,529,584.5,524.9,584.7,523.4z"/>
		<path class="st1" d="M624.7,575c2.7-0.5,1.1-2.7,3-4.6c1.9-1.9,4.1-5.6,4.3-7c0-0.1,0.1-0.2,0.3-0.3c-3.7-2.7-6.2-4.7-7.1-7.5
			c-0.8-2.9,0-8.5,1.3-12.6c-2.1-1.5-8.5-5.9-10.6-5.9c-2,0-5.1,4.4-5.9,8.7c4.7,2.5,6.6,4.3,3.3,7.5c-3.4,3.4-4.1,14.9-0.4,17.9
			c3.6,2.9,4.6,8.7,8.1,10.3C622.2,578.7,623,575.4,624.7,575z"/>
		<path class="st1" d="M573.3,442.7c-3.2-3.6-11.3-3.6-11.3-3.6s-0.8,3.6-2,5.6c-1,1.7-6.9,1.7-10.6,0.6c-1.1,1.4-5.9,2.5-6.6,4.5
			c-0.8,2.4-6.8,1.1-4.9,7.5c1.9,6.5-3,4.3-4.9,3.5c-1.9-0.8-10.3,0.3-12.4,2.4c-2.2,2.2-5.1,1.6-7,0.5c-1.9-1.1-5.7-1.6-7.3,1.1
			c-1.6,2.7-4.6-2.1-7-1.9c-2.4,0.3-1.4,5.4-1.4,6.5c0,1.1,3.8,4.3,6.2,3.2c2.4-1.1,5.4,0.3,7.6,1.6c2.2,1.3,6.2-1.1,7.6-2.4
			c1.4-1.3,8.9-1.3,9.7-1.3c0.8,0,1.1,4.3,2.4,5.1c1.3,0.8,6.5,1.3,11.1,1.6c4.6,0.3,11.4,2.4,13.5,2.4c2.2,0,5.7-3.8,10.5-3.8
			c4.9,0,7.6-3,8.4-2.7c0,0,0,0,0,0c0.3-1.5,0.9-2.7,2-2.9c2-0.3,0.6-3.6,2-5.3c1.4-1.7-1.1-5,1.4-4.8c2.5,0.3,5.4,0.6,5.4-3.1
			c0-1.2,0.7-2.3,1.6-3.2c-2.8-3.9-4.8-10.1-4.8-10.1S576.6,446.3,573.3,442.7z"/>
		<path class="st1" d="M651.5,452.8c-0.9-0.3-2-0.9-2.9-1.7c-3.4-0.7-6.7-1.7-7.7-2.7c-2-2-10.1-3.2-11.3-3.6
			c-1.2-0.4-8.9,7.2-11.3,7.2c-2.4,0-12.9,1.2-12.9,4c0,2.8-12.9,3.2-16.5,0c-0.6-0.5-1.1-1.2-1.6-1.9c-1,0.9-1.6,2-1.6,3.2
			c0,3.6-2.8,3.4-5.4,3.1c-2.5-0.3,0,3.1-1.4,4.8c-1.4,1.7,0,5-2,5.3c-1.1,0.1-1.6,1.4-2,2.9c0.8,0.4,2.9,4.5,2.9,4.5
			s-0.1,0.1-0.3,0.3c2.7,1.6,8.3,5.1,10.1,7.5c2.4,3.2,9.3,3.6,12.5,2.8c3.2-0.8,16.9-5.2,16.9-5.2s3.2,1.2,5.2,1.6
			c0.5,0.1,1.8,0.3,3.4,0.6c1-1,4-1.9,7.2-5.1c3.8-3.8,9.5-17.2,11.1-18.3c1.6-1.1,6-3.5,8.1-5.1
			C654.5,455.2,653.9,453.6,651.5,452.8z"/>
		<path class="st1" d="M601.5,425.1c-2-1.2-7.7-0.4-8.1-2c-0.4-1.6-0.8-4.4-3.2-4.4c-2.4,0-5.6-1.6-6.8,1.2c-1.2,2.8-6-0.8-6.5-2.8
			c-0.4-2-2.4-3.6-8-5.6c-2.2-0.8-4.8-2.4-7.1-4.1c-0.2,0.5-0.4,0.9-0.6,1.3c-1.1,1.6-4.9-1.3-6.5,0.3c-1.6,1.6-7,1.9-10,4.6
			c-3,2.7-9.2,4-12.7,4.8c-3.5,0.8-0.5,4,0.8,6.5c1.4,2.4,1.4,8.3,4.1,10.2c2.7,1.9,11.6,7.5,12.7,9.4c0.2,0.3,0.1,0.6-0.2,0.9
			c3.7,1,9.6,1,10.6-0.6c1.2-2,2-5.6,2-5.6s8,0,11.3,3.6c3.2,3.6,9.3,1.2,9.3,1.2s0.3,1,0.9,2.4c0.9-2,2-3.7,3.4-3.9
			c3.4-0.5,8.2-1,11.6-5.8c1.8-2.5,4.7-4.5,7.1-5.8C603.9,428.9,603.1,426,601.5,425.1z"/>
		<path class="st1" d="M634.1,433.5c-4,0.4-6-2-9.3-0.8c-3.2,1.2-8.5,0-10.5-1.2c-2-1.2-4.4,2.4-7.3,0.8c-0.6-0.4-1.1-0.9-1.6-1.4
			c-2.4,1.3-5.3,3.3-7.1,5.8c-3.4,4.8-8.2,5.3-11.6,5.8c-1.4,0.2-2.5,1.9-3.4,3.9c1.1,2.8,3.1,7.4,5.6,9.6c3.6,3.2,16.5,2.8,16.5,0
			c0-2.8,10.5-4,12.9-4c2.4,0,10.1-7.6,11.3-7.2c1.2,0.4,9.3,1.6,11.3,3.6c1,1,4.3,2,7.7,2.7c-1.4-1.2-2.5-2.9-2.5-4.2
			c0-2.1,4.1-7.8,5.4-8.9c0.1-0.1,0.2-0.2,0.2-0.4c-3.1-0.5-6.5-1.1-7.1-1.7C643.4,434.7,638.2,433.1,634.1,433.5z"/>
		<path class="st1" d="M292.9,605.3c4.8-0.9-1.3-4.8-2.6-6.1c-1.3-1.3,0.4-6.5,3.1-6.5c2.6,0,0-3-3.5-6.5c-3.5-3.5,0-4.8,3.1-4.8
			c3.1,0-0.9-5.2,2.2-8.3c3.1-3.1-0.9-8.7-0.9-11.3c0-2.6,4.4-3.5,7.9-7c3.5-3.5-3.1-2.2-3.1-4.8c0-2.6-4.4-3.5-7.5-1.3
			c-3.1,2.2-2.2,0-4.8,0c-2.6,0-7.5,0.9-7.5-1.7c0-2.6-2.2-3-4.4-0.4c-0.6,0.8-1.7,1.2-3.2,1.4c-0.3,3.4-0.7,6.6,0.3,8.2
			c2.3,3.8-2.9,23.6-7.6,29c-4.7,5.4-0.2,6.8,4.7,10.6c4.9,3.8,1.6,17.4,1.6,20.6c0,3.2,4.3,2.3,9.4,2.3c3,0,6.4-1.3,9.7-1.9
			c-1-1.5-1.8-3-1.8-3.9C288,610.1,288,606.2,292.9,605.3z"/>
		<path class="st1" d="M434.5,401.3c2.2-2.2,6.1-1.1,8.3,1.1c2.2,2.2,5.5,2.7,8.8,6c0.8,0.8,1.8,1.6,2.7,2.3
			c0.3-2.3,0.4-6.9,1.4-9.3c1.1-2.5-1.1-5.7,0.7-5.7c1.8,0,6.8,0,6.8-3.2c0-3.2,1.4-2.2,2.5-3.9c1.1-1.8-3.2-5.4-4-6.5
			c-0.7-1.1,3.2-1.4,6.1-5.7c1-1.6,0.6-4.8-0.4-8.2c-0.5,1.3-1.4,2.2-3.1,1.2c-2.7-1.6-6.8-0.7-12.3,0.4c-5.4,1.1-7,6.3-5.1,8.4
			c2,2.2-5.2,3.2-5.8,0.4c-0.5-2.9-5.9-0.9-5.6,2.9c0.4,3.8-5.9,5.2-5.6,9.8c0.4,4.7-5.8,9-9.7,11.3c-0.6,0.4-1.3,0.7-1.9,1.1
			c2,0.9,3.6,1.5,4.3,1.5C426.2,405.1,432.3,403.5,434.5,401.3z"/>
		<path class="st1" d="M455,422.1c-2.4,1.3-4.6,4.2-4.3,10.3c2.3-0.1,5.7,0.2,8,0.9c-0.6-6.6-3.2-8.7-3.9-10
			C454.7,422.9,454.8,422.5,455,422.1z"/>
		<path class="st1" d="M412,408.7c0.3,1.9,3.2,6.5,4.3,4.6c1.1-1.9,3.8,2.4,6.2,3.8c2.4,1.3,7.3,3,7.6,4.6c0.3,1.6,1.1,5.1,3.5,4
			c2.4-1.1,5.4-4.8,5.4-2.7c0,2.1,0.8,6.2,3.5,5.6c2.7-0.5,3.5,4.6,6.2,4c0.5-0.1,1.2-0.1,1.9-0.2c-0.3-6.1,1.9-9,4.3-10.3
			c0.6-1.1,2.2-2.2,2.4-3.5c0.4-1.8-3.6-5.4-3.2-7.5c0-0.1,0-0.3,0.1-0.4c-0.9-0.7-1.8-1.4-2.7-2.3c-3.3-3.3-6.6-3.8-8.8-6
			c-2.2-2.2-6.1-3.3-8.3-1.1c-2.2,2.2-8.3,3.8-11.6,3.8c-0.8,0-2.3-0.6-4.3-1.5c-2.6,1.5-5.4,2.9-8.1,3.5
			C411,407.8,411.8,407.4,412,408.7z"/>
		<path class="st1" d="M724.1,497.1c-2.5-0.4-5.8-1.4-4.7-2.9c0.1-0.1,0.2-0.3,0.3-0.4c-3.4-2.7-4.3-11.5-2.1-13.6
			c2.7-2.7-4.4-13.1-7.7-17c-1.5-1.8-4.9-7.8-8-13.7c-2.9,0.9-5.4,2-5.9,2.8c-1.1,1.8-4.7,3.6-6.9,3.6c-2.2,0-4.3-1.1-6.1,0.7
			c-1.8,1.8-4.3,2.5-5.4,1.4c-1.1-1.1-4.7-2.1-7.2-2.1c-2.5,0-10.4-2.2-12.2-2.2c-1.1,0-2.8,0.1-4.7,0.4c0.4,0.8,0.1,1.7-1.2,2.6
			c-2.2,1.6-6.5,4-8.1,5.1c-1.6,1.1-7.3,14.5-11.1,18.3c-3.8,3.8-7.3,4.3-7.6,5.6c-0.3,1.3,4.3,4.8,4.3,7c0,2.2,1.1,4.3,4.1,4.3
			c3,0-0.3,7,1.6,7.5c1.9,0.5,13.5,1.3,13.5,4c0,2.1,1.3,3.8,0.7,5.3c3.3,0.5,5.7,5,6.9,4.6c1.4-0.4,11.2,1.8,13,1.4
			c1.8-0.4,10.1,0,13,0.4c2.9,0.4,6.1-1.1,8.6-3.6c2.5-2.5,11.5-2.9,14.4-2.5c2.9,0.4,8.6,1.1,9.7,2.9c0.6,0.9,4,2.3,7.4,3.5
			c0.4-1.8-0.1-4.1,0-6.4c0.2-3.8,2.3-9.5,6.1-9.9c3.8-0.4,6.9-0.4,6.3-6.6c0-0.2,0-0.4,0-0.6c-1.9-1.6-3.7-3-4.3-3
			C729.5,494.2,725.2,497.3,724.1,497.1z"/>
		<path class="st1" d="M729.2,459.1c-1.5-4.7-6.1-6.5-8.7-6.5c-2.5,0-6.8-5.7-9.7-5.4c-1.6,0.2-5.5,1.1-8.9,2.2
			c3.1,5.9,6.5,11.9,8,13.7c3.3,3.8,10.5,14.2,7.7,17c-2.2,2.1-1.3,10.9,2.1,13.6c1.6-2,6.9-8.7,6.9-10.7c0-2.1,0.4-6.5,4.7-5.4
			c4.3,1.1,8.3,2.9,8.3,1.4c0-1.4-1.1-6.1-2.9-7.9C735,469.5,730.6,463.8,729.2,459.1z"/>
		<path class="st1" d="M705.8,514.3c-2.9-0.4-11.9,0-14.4,2.5c-2.5,2.5-5.8,3.9-8.6,3.6c-2.9-0.4-11.2-0.7-13-0.4
			c-1.8,0.4-11.5-1.8-13-1.4c-1.3,0.3-3.7-4.1-6.9-4.6c-0.2,0.4-0.4,0.8-1,1.1c-2.4,1.6-2.7,5.9,0,8.3c2.7,2.4,6.2,7.8,3.8,7.8
			c-2.4,0-4.3,3.2-4.1,4.8c0.3,1.6-0.8,5.1,0,5.9c0.8,0.8,6.5,6.2,6.8,7.8c0.2,1.4,2.6,2.2,2.4,3.4c4.5-0.3,14.2-0.9,16.4,0.2
			c2.9,1.4,13,2.1,13,2.1c2.9,0,5.4-1.1,4.7-2.9c-0.6-1.5,3.1-2.5,5.9-2.8c-0.5-1.7-0.8-3-0.1-3.3c1.3-0.5,9.2-1.6,12.4,0
			c1.6,0.8,3.5,0,4.9-0.9c-0.4-1.5-0.9-2.7-1.7-2.8c-2-0.4-5-8.6-2.5-9.1c2.5-0.5,5.8-9.1,9.7-10.4c1.6-0.5,2.3-1.4,2.5-2.6
			c-3.4-1.1-6.8-2.6-7.4-3.5C714.4,515.4,708.6,514.7,705.8,514.3z"/>
		<path class="st1" d="M632.3,563.1L632.3,563.1c0.1-0.1,0.3-0.2,0.5-0.2c0,0,0.1,0,0.1,0c0.2,0,0.4-0.1,0.7-0.1c0,0,0.1,0,0.1,0
			c1.1-0.1,2.5,0,3.9-0.1c0.1,0,0.2,0,0.3,0c0.3,0,0.6,0,1-0.1c0.1,0,0.2,0,0.4,0c0.4-0.1,0.8-0.1,1.2-0.2c3.2-0.8,4.1-4.3,5.7-3.5
			c1.6,0.8,10.3-3.6,11.4-5.2c0.1-0.2,0.2-0.4,0.2-0.5c0.2-1.2-2.1-2-2.4-3.4c-0.3-1.6-5.9-7-6.8-7.8c-0.2-0.2-0.2-0.5-0.3-0.8
			c0,0,0-0.1,0-0.1c0-0.4,0-0.8,0-1.3c-8.5,1.2-21,3.8-21,3.8s-0.3-0.2-0.7-0.5c-1.3,4.1-2.1,9.7-1.3,12.6
			C626.1,558.4,628.6,560.4,632.3,563.1z"/>
		<path class="st1" d="M839.4,463c1.9-0.3,7.6-6.5,9.5-6.5s10,1.6,10,0.3c0-1.3,2.7-5.9,2.2-7.3c-0.5-1.3-3.2-3.2-2.7-4.6
			c0.5-1.3,4.3-1.3,4.3-3c0-1.6-3-2.4-3-3.5c0-1.1,3.8-3,3.5-5.1c-0.3-2.1-3.5-2.4-7-4.3c-3.5-1.9-7-1.1-10.3-2.7
			c-3.2-1.6-10-0.5-10-1.6c0-1.1-4.3-4.6-5.4-6.5c-1.1-1.9-4.6-0.8-6.8,0.5c-2.2,1.3-4.1,1.9-6.2,0.5c-2.2-1.3-4.1-3.5-5.9-2.7
			c-1.9,0.8-5.4,0.3-4.6-2.4c0.8-2.7-3.5-8.6-5.4-9.4c-1.9-0.8-7.6,0.5-8.9-2.2c-1.4-2.7-3.8-4.8-2.7-6.7c1.1-1.9-0.3-7-1.6-9.1
			c-1.4-2.1-8.1-1.9-10-1.1c-1.9,0.8-6.2-0.8-8.1,0.3c-1.9,1.1-3,3-5.7,3c-1.5,0-2.5-0.2-3.3-1.4c-2.9,1.3-7.8,1.6-7.8,1.6
			s-7.2,5.7-7.2,7.9c0,2.1-0.3,5.7-2.2,3.9c-1.8-1.8-9.4-1.8-11.2-0.7c-1.8,1.1-4.7-4.3-7.9-2.5c-3.2,1.8-7.6-2.5-7.9-0.7
			c-0.4,1.8-5,0.4-8.3-1.1c-3.2-1.4-9,0.7-11.2-1.8c-2.2-2.5-16.2-2.5-20.9-2.5s-5.8,2.5-7.9,4.7c-2,2-4.2,1.5-6.5,1.4
			c0.2,1.8,0.6,3.4,1,4.1c1.1,1.6,6.2,9.4,4.9,11.8c-1.3,2.4-3.8,2.4-5.4,4.3c-1.6,1.9-11.1,10.2-11.4,11.6
			c-0.3,1.3,1.6,7.3,0.3,8.3c-1.3,1.1-5.4,6.7-5.4,8.9c0,2.2,3,5.1,5.4,5.9c1,0.3,1.7,0.8,2,1.4c1.9-0.3,3.6-0.4,4.7-0.4
			c1.8,0,9.7,2.2,12.2,2.2c2.5,0,6.1,1.1,7.2,2.1c1.1,1.1,3.6,0.4,5.4-1.4c1.8-1.8,4-0.7,6.1-0.7c2.2,0,5.8-1.8,6.9-3.6
			c1.1-1.8,11.9-4.7,14.8-5c2.9-0.4,7.2,5.4,9.7,5.4c2.5,0,7.2,1.8,8.7,6.5c1.4,4.7,5.8,10.4,7.6,12.2c1.8,1.8,2.9,6.5,2.9,7.9
			c0,1.4-4-0.4-8.3-1.4c-4.3-1.1-4.7,3.2-4.7,5.4c0,2.2-6.1,9.7-7.2,11.1c-1.1,1.4,2.2,2.5,4.7,2.9c1.1,0.2,5.4-2.9,6.8-2.9
			c0.6,0,2.4,1.4,4.3,3c-0.4-5.6,0.8-5.3,5.8-9.1c5.2-3.9,5.8-11.3,10.5-12.2c4.7-0.9,6.7-3,13.5-2c6.9,1.1-3.4,5.4,1.3,7.9
			c4.7,2.5,19.1-0.7,19.8,2.9c0.7,3.6-16.6,7.2-16.2,9c0.4,1.8,9.2,3.6,12.3,5.5c3.1,2-0.9,7.5,0.5,9.3c1.4,1.8,6.1,0.4,9.9-2.3
			c3.8-2.7,6.8-1.8,11.7-5c4.9-3.2,15-0.4,16.2-2.3c1.3-2-2.9-3.9-12.3-3.2c-9.4,0.7-9.9-8.1-9.9-9.9c0-1.8,9.7-9.1,15.3-9.7
			c5.6-0.5,10.1-2.2,15.5-4.7c2.2-1,6-2,9.9-2.8C838.5,466.2,837.8,463.2,839.4,463z"/>
		<path class="st1" d="M765.6,360.9c-2.2-0.5-3.5-5.4-7-6.7c-3.5-1.3-2.7-5.6-5.7-7.5c-3-1.9-1.1-5.6-1.4-8.6
			c-0.3-3,0.5-7.5-1.1-8.3c-1.6-0.8-8.4-4.6-11.4-3.2c-3,1.3-5.1,2.4-6.5,0c-1.4-2.4-3.2-3.8-6.2-3c-3,0.8-4.9-0.5-6.5-1.9
			c-0.2-0.2-0.4-0.5-0.6-0.9c-1.2,0.2-2.8,0.7-3.8,1.5c-1.8,1.4-2.2,4.3-4.7,4.3c-2.5,0-5.4-1.1-8.3,1.1c-2.9,2.1-3.6,4.7-3.2,6.4
			c0.4,1.8,0.7,4.7-1.4,4.7c-2.2,0-1.8,2.5-4,3.2c-2.2,0.7-5.8,3.9-6.1,5.7c-0.4,1.8-0.4,5.7-1.8,5.7s-6.5,0.7-7.9,2.5
			c-1.4,1.8-3.2,3.6-6.1,2.9c-1.5-0.4-5.4-0.5-8.9-0.6c0.1,0.4,0.1,0.7-0.1,1.1c-1.3,3.8-0.3,7.3,1.9,9.1c2.2,1.9,3,9.4,0.5,10.5
			c-2.4,1.1-7,4.3-7,6.2c0,1.9,4.9,3.5,4.1,6.2c-0.5,1.5-0.5,4.3-0.2,6.7c2.3,0.1,4.6,0.5,6.5-1.4c2.2-2.2,3.3-4.7,7.9-4.7
			s18.7,0,20.9,2.5c2.2,2.5,7.9,0.4,11.2,1.8c3.3,1.4,7.9,2.9,8.3,1.1c0.4-1.8,4.7,2.5,7.9,0.7c3.2-1.8,6.1,3.6,7.9,2.5
			c1.8-1.1,9.4-1.1,11.2,0.7c1.8,1.8,2.2-1.8,2.2-3.9c0-2.1,7.2-7.9,7.2-7.9s4.9-0.3,7.8-1.6c-0.7-0.9-1.2-2.5-1.8-5.1
			c-1.3-5.9-3.5-9.4-1.9-11.3c1.6-1.9,6.2,2.4,8.6,1.3c2.4-1.1,6.8-3.2,6.2-5.6C771.8,364.6,767.7,361.4,765.6,360.9z"/>
		<path class="st1" d="M659.8,317.5c3.3,0,11,1.6,15.4,0c4.4-1.6,4.4,3.3,7.2,2.7c2.7-0.5,8.3,3.3,11.6,6c1.8,1.5,3.8,2.6,6.2,4
			c0.5-0.9,1.2-1.8,2.4-2.6c2.9-2.1,5.8-1.1,8.3-1.1c2.5,0,2.9-2.9,4.7-4.3c1-0.8,2.6-1.3,3.8-1.5c-1-2-1-5.9-2.6-7.4
			c-1.9-1.9-4.6-5.1-3.8-7c0.8-1.9,0.8-4.6-1.4-6.7c-0.9-0.9-1.7-2-2.1-3.1c-4.4-0.6-10.3-1.2-11.6-0.8c-2.2,0.7-10.8-6.1-12.3-7.2
			c-0.9-0.7-7.4-0.3-13.1,0.2c-3.3,3.7-0.9,6.4-1.1,12c-0.2,5.7-6.5,4.7-9.9,4.7c-3.4,0-9-10.2-10.8-12.5c-1.8-2.3-7.6,2.9-11.7,5.4
			c-4.1,2.5-2,7.4-4.9,9.7c-2.9,2.3-4.7,6.3-1.8,11.5c0.1,0.2,0.2,0.4,0.3,0.6c3.6-0.3,7.4-0.9,9.7-2.5
			C646,314.8,656.5,317.5,659.8,317.5z"/>
		<path class="st1" d="M639.3,337.2c1.4,1.9,5.7,3.5,7.3,2.7c1.6-0.8,6.8,1.9,6.8,4c0,2.1-1.4,8.6,0,8.6c1.2,0,9,2.4,9.5,5.6
			c3.5,0.1,7.5,0.3,8.9,0.6c2.9,0.7,4.7-1.1,6.1-2.9c1.4-1.8,6.5-2.5,7.9-2.5s1.4-3.9,1.8-5.7c0.4-1.8,4-5,6.1-5.7
			c2.2-0.7,1.8-3.2,4-3.2c2.2,0,1.8-2.9,1.4-4.7c-0.2-1.1,0-2.4,0.9-3.8c-2.3-1.3-4.4-2.5-6.2-4c-3.3-2.7-8.8-6.6-11.6-6
			c-2.8,0.6-2.8-4.4-7.2-2.7c-4.4,1.6-12.1,0-15.4,0c-3.3,0-13.8-2.7-17.6,0c-2.2,1.6-6.1,2.2-9.7,2.5c2.5,5,1.6,10.1-1.2,13.2
			c-2,2.2-0.8,2.5,0.6,3.4C634.9,336.3,638.3,335.7,639.3,337.2z"/>
		<path class="st1" d="M504.2,472.6c-2.4,1.1-6.2-2.2-6.2-3.2c0-0.7-0.5-3.4,0-5.1c-2-1-4.9-2.4-7-3.1c-3.6-1.1-5.4-1.1-8.3,0.4
			c-1.8,0.9-6.9,0.7-10.3,0.4c-0.3,1.1-0.8,1.8-1.6,1.8c-2.4,0-5.7,2.4-6.2,5.1c-0.5,2.7-6.2,4.8-7.8,9.7c-1.6,4.8-0.8,7,1.6,4
			c2.4-3,5.4-1.9,5.4,0.5c0,2.4,3.2,2.7,2.2,5.9c0,0.1,0,0.1,0,0.2c3.7-0.3,8.8-0.7,10.4-0.7c2.5,0,5-7.9,6.1-8.6
			c1.1-0.7,4,5.7,6.9,8.3c2.9,2.5,3.2-2.2,3.2-4.3c0-2.2,2.5-2.9,4.3-2.5c1.8,0.4,5.8,1.1,5.8-1.4c0-2.5,2.2-1.4,3.6-1.4
			c1.4,0,1.8-2.9,1.8-2.9l2.4-2.2C508.3,472.5,506.1,471.8,504.2,472.6z"/>
		<path class="st1" d="M467.9,376.4c-2.9,4.3-6.8,4.6-6.1,5.7c0.7,1.1,5.1,4.7,4,6.5c-1.1,1.8-2.5,0.7-2.5,3.9
			c0,3.2-5.1,3.2-6.8,3.2c-1.8,0,0.4,3.2-0.7,5.7c-1.1,2.5-1.1,7.5-1.4,9.7c-0.4,2.1,3.6,5.7,3.2,7.5c-0.4,1.8-3.2,3.2-2.5,4.7
			c0.7,1.4,3.3,3.4,3.9,10c1.2,0.4,2.3,0.8,2.7,1.4c1.6,2.1,4.3,3.8,7.8,3.8s4.9,2.4,6.5,2.1c1.6-0.3,5.9,1.1,2.4,4
			c-3.5,3-4.1,6.4-4.9,9.9c-0.5,2.3-0.5,5.4-1.1,7.3c3.4,0.3,8.5,0.6,10.3-0.4c2.9-1.4,4.7-1.4,8.3-0.4c2.1,0.6,5,2,7,3.1
			c0.2-0.7,0.6-1.3,1.3-1.4c2.4-0.3,5.4,4.6,7,1.9c1.6-2.7,5.4-2.1,7.3-1.1c1.9,1.1,4.9,1.6,7-0.5c2.2-2.1,10.5-3.2,12.4-2.4
			c1.9,0.8,6.8,3,4.9-3.5c-1.9-6.4,4-5.1,4.9-7.5c0.8-2.4,7.8-3.5,6.8-5.4c-1.1-1.9-10-7.5-12.7-9.4c-2.7-1.9-2.7-7.8-4.1-10.2
			c-1.3-2.4-4.3-5.6-0.8-6.5c3.5-0.8,9.7-2.1,12.7-4.8c3-2.7,8.4-3,10-4.6c1.6-1.6,5.4,1.3,6.5-0.3c1.1-1.6,1.9-4.8,0.3-6.7
			c-1.6-1.9-2.7-5.1-3-9.7c-0.3-4.6-1.6-4.3-1.6-6.5c0-2.2-0.8-4.8-2.7-5.9c-1.9-1.1-2.7-1.9-0.8-4.8c1.9-3,1.1-10.5,0.3-12.6
			c-0.2-0.4-0.1-0.9-0.1-1.5c-0.5-0.2-0.9-0.7-1-1.5c-0.5-2.9-2.5-3.9-7.2-3.9c-4.7,0,2.9-4.7,1.1-7c-1.8-2.3-6.5,4.3-10.8,2.9
			c-4.3-1.4-9.9,5-13.7,7.9c-3.8,2.9-9.2-0.5-6.3-4.7c2.9-4.1,0-3.8-4.3-2.1c-4.3,1.6-9.6-0.4-9-4.3c0.1-1-0.2-1.9-0.7-2.8
			c-2.1,0.3-3.7,0.4-4.5,0.1c-1.9-0.6-6.3-1-11.1-1.1c1.4,2.1,3,4.1,2.1,5.7c-1.6,3,0.9,5.9,3.2,10.4c2.3,4.5-5,2-5.2,4.8
			c-0.2,2.9-6.8-0.2-9-1.3c-2.2-1.1-9.4-0.4-9.2,1.4c0.1,0.7,0,1.7-0.4,2.5C468.5,371.6,468.9,374.8,467.9,376.4z"/>
		<path class="st1" d="M740.7,220.5c2.9-6.4,15.9-11.4,18-17.2c1.1-2.9,1.4-4.3-3.2-9.7c-4.7-5.4-15.1-9-15.5-11.8
			c-0.4-2.9,7.9-3.2,7.6-6.8c-0.4-3.6-4.7-3.6-6.5-6.4c-1.8-2.9,2.2-4.7,1.8-6.1c-0.4-1.4-5.8-2.1-6.1-3.9c-0.4-1.8,3.6-1.4,2.9-3.6
			c-0.7-2.1-4.3-6.1-1.8-9.3c2.5-3.2,7.9,0,4-7.2c-4-7.2-10.1-16.1-11.5-18.3c-1.4-2.1,1.4-5.7,3.6-7.2c2.2-1.4,7.6-6.8,7.6-9
			c0-2.1-6.9-7.9-8.7-9c-1.8-1.1-5.8-0.7-7.6-4.3c-1.8-3.6-3.6-4.6-1.8-6.8c1.8-2.1,1.8-4.3,1.8-6.5c0-2.1,4-0.4,4.7-3.6
			c0.3-1.5,1.4-3.1,2.7-4.4c0-2.4,0.3-5.1,0-6.8c-0.6-3.5-10.4-4.6-12.7-8.6c-2.3-4-8.1-2.3-9.9,0c-1.7,2.3-12.2-0.6-12.2,2.9
			c0,3.4-7.5,4-7.5,8.1c0,4,3.5,10.9-2.3,10.4c-5.8-0.6-1.7,2.3-5.2,6.9c-3.5,4.6-3.5-2.9-7-1.7c-3.5,1.1-7.5-3.5-9.3-0.6
			c-1.7,2.9-7.5,0.6-13.3-0.6c-5.8-1.1-8.7-9.2-13.3-9.8c-3.1-0.4-6.4,2.1-8.1,5.9c4.5,2.9,7.4,7,13.3,9.6c6.4,2.9,18,6.3,17.4,10.4
			c-0.6,4-2.3,9.8,0.6,11.5c2.9,1.7-0.6,9.2,2.9,10.9c3.5,1.7,2.3,10.4-0.6,10.4c-2.9,0,0.6,4.6,2.3,6.3c0.8,0.8,1.4,3.1,1.7,6
			c3.6,0.9,6.7,2.6,9.8,4c4.9,2.1,4.1,5.6,4.3,9.3c0.2,3.8,0.4,5.9-2.2,4.3c-2.5-1.6-5.2,0-6.7,5.4c-1.4,5.4-8.3,11.8-12.4,12.2
			c-4.2,0.4-3.8,4.7-7.2,5.6c-3.4,0.9-6.7,2.9-6.5,6.6c0.2,3.8-5,4.1-8.5,4.1c-3.4,0-2.7,6.1-5.4,7.7c-2.7,1.6-2.2,3.8,0.4,7
			c2.5,3.2,0.4,6.1,1.3,8.4c0.9,2.3,4.9,7.7,2.2,13.6c-2.7,5.9-5.6,13.3-3.2,12.5c2.3-0.7,7.8,4.8,11.4,4.5c3.6-0.4,4,5,7.4,3.9
			c3.4-1.1,3.4,3.2,13.3,2.9c9.9-0.4,29.9-8.6,37.8-8.6c4.5,0,8.1-0.5,10.9-1.2c1.7-2.5,3.8-5.3,5.8-7.4
			C727,230.5,737.8,227,740.7,220.5z"/>
		<path class="st1" d="M819.3,717.1c0,2.9-5.3,7.6-9.6,7.2c-2.5-0.3-7.9-3-12.1-5.3l-1.3,3.5l-0.5,3.3c0.8,2.5-0.4,13,2,13.8
			c2.7,0.9,4.1,5.7,9.9,12"/>
		<path class="st1" d="M825.1,697.5"/>
		<path class="st1" d="M846.4,668.2c0.2,2.2,0.5,4.4,1,5.9"/>
		<path class="st1" d="M919.4,616.6c-0.8,6.3-10-3.5-12.9-2c-2.9,1.4-5-2.9-10.8-2.2c-3.7,0.5-3.6,2.4-5.4,4.1l0.2,0.1l-7.2,5.3
			c0,0-6.3,1.9-7.7,5.7"/>
		<path class="st1" d="M475.8,440.7c-1.6,0.3-3-2.1-6.5-2.1s-6.2-1.6-7.8-3.8c-1.6-2.2-10-2.7-12.7-2.2c-2.7,0.5-3.5-4.6-6.2-4
			c-2.7,0.5-3.5-3.5-3.5-5.6c0-2.1-3,1.6-5.4,2.7c-2.4,1.1-3.2-2.4-3.5-4c-0.3-1.6-5.1-3.2-7.6-4.6c-2.4-1.3-5.1-5.6-6.2-3.8
			c-1.1,1.9-4.1-2.7-4.3-4.6c-0.2-1.2-1-0.9-1.6-1.6c-0.9,0.2-1.8,0.3-2.8,0.3c-4.3-0.2-8.1,3.2-7.4,10.4c0.7,7.2-5.2,7.9-12.6,8.4
			c-7.4,0.5-4.9,6.3-7.9,8.6c-3.1,2.3-13.9-1.2-15.3-5.2c-1.4-3.9-11.2,0-7,4.6c4.1,4.7,4,11.1,1.6,12.9c-2.3,1.8-7.4-2.9-10.6-0.5
			c-3.2,2.3-3.4-2.1-7.4-3.6c-4-1.4-5.6,1.8-11.9,1.2c-6.3-0.5-9.9,3-7.6,5.7c2.3,2.7-0.4,5.2,1.4,7.5c1.8,2.3,10.1,2,16.2,5.2
			c6.1,3.2,7.6,0.5,10.6,2.9c3.1,2.3,3.8,0.9,4,5.4c0.2,4.5,3.6,8.8,9.6,10.4c5.9,1.6,1.4,5.6,3.2,9.5c1.8,3.9-2.7,9.7-1.8,14.5
			c0.9,4.8-2.9,20.4-5.8,21.8c-0.2,0.1-0.5,0.1-0.7,0.1c2.7,1.3,5.5,2.5,6.9,3.4c2.6,1.7,8.3,3.5,11.8,5.7c3.5,2.2,9.6,1.7,9.6-0.9
			c0-2.6,3.5-0.9,5.7,1.3c2.2,2.2,10.5,2.6,14.5,3.5c3.3,0.7,8.2,0.3,12.5,0.4c-0.2-1-0.4-2-0.7-3.1c-2.2-7,4.1-11.1,10.1-12
			c5.9-0.9,18.9,2.7,22.4,4.8c3.4,2.1,8.1,1.6,14.1-4.7c3-3.2,5.5-4.3,7.6-4.9c0.2-1.4,0.9-2.8,1.4-4.1c0.8-2.2-3-1.6-5.7-1.9
			c-2.7-0.3-4.6-3-2.7-5.9c1.9-3-1.6-3.2-3.5-6.2c-1.9-3,0.8-2.1,2.4-3c1.6-0.8,3.8-4,2.4-4.8c-1.4-0.8-2.4-2.7-1.4-5.9
			c1.1-3.2-2.2-3.5-2.2-5.9c0-2.4-3-3.5-5.4-0.5c-2.4,3-3.2,0.8-1.6-4c1.6-4.8,7.3-7,7.8-9.7c0.5-2.7,3.8-5.1,6.2-5.1
			c2.4,0,1.9-5.6,2.7-9.1c0.8-3.5,1.4-7,4.9-9.9C481.7,441.7,477.4,440.4,475.8,440.7z M495.1,531.9c-2-0.2-2.5,3.4-7.6,6.5
			c-5,3,0,16.8,5,16.1C497.8,553.7,497,532,495.1,531.9z"/>
		<path class="st1" d="M-31.5,514c-1.5,0.2-0.7,3.8,0.1,3.2c0.6-0.4,1.6-0.5,1.9-1.1C-29,515.4-30,513.9-31.5,514z M-33.4,511.8
			c-0.9,0.1-0.3,1.7,0.3,1.3C-32.2,512.4-32.5,511.7-33.4,511.8z M-42.5,508.9c0.8,0.8,1.3,0.6,1.5-0.1
			C-40.7,508-43.3,508-42.5,508.9z M-38.3,510.6c0.6,0.9,1.2,1,1.6,0.3C-36.2,510.1-39,509.6-38.3,510.6z"/>
		<path class="st1" d="M419.4,540.7c-4.3-0.1-9.2,0.4-12.5-0.4c-3.9-0.9-12.3-1.3-14.5-3.5c-2.2-2.2-5.7-3.9-5.7-1.3
			c0,2.6-6.1,3.1-9.6,0.9c-3.5-2.2-9.2-3.9-11.8-5.7c-1.4-0.9-4.2-2.1-6.9-3.4c-3.7,0.7-14.2-3.1-21.1-2.3c-7.4,0.9-31-1.1-40.2-0.4
			c-9.2,0.7-9.7-3.8-14.8-3.8c-5,0-2.9,6.1-10.1,6.3c-7.2,0.2-7.9,4.7-2.7,8.8c3,2.3,2.6,7.3,2.2,11.8c1.5-0.2,2.6-0.6,3.2-1.4
			c2.2-2.6,4.4-2.2,4.4,0.4c0,2.6,4.8,1.7,7.5,1.7c2.6,0,1.7,2.2,4.8,0c3.1-2.2,7.5-1.3,7.5,1.3c0,2.6,6.6,1.3,3.1,4.8
			c-3.5,3.5-7.9,4.4-7.9,7c0,2.6,3.9,8.3,0.9,11.3c-3.1,3,0.9,8.3-2.2,8.3c-3.1,0-6.6,1.3-3.1,4.8c3.5,3.5,6.1,6.5,3.5,6.5
			c-2.6,0-4.4,5.2-3.1,6.5c1.3,1.3,7.5,5.2,2.6,6.1c-4.8,0.9-4.8,4.8-4.8,7.4c0,1,0.8,2.4,1.8,3.9c2.2-0.4,4.4-0.5,6.5,0.5
			c5,2.3,8,14.8,14.8,14c2.9-0.4,1.4-2.5,2.9-3.9c1.4-1.4,4.1-0.4,7-0.4c2.9,0,4.3-4.1,11.2-4.3c6.9-0.2,11.2-0.7,15.5-0.5
			c4.3,0.2,7.8-1.3,8.8-4.3c1.1-3,4.7-5.7,9.6-6.5c4.9-0.7,4.1-5.7,4.5-8.6c0.4-2.9,8.5-7.2,9-9.3c0.5-2.2-4.7-10.4,0.2-17.7
			c4.9-7.3,10.1-7.7,10.1-11.8c0-3.8,5-5.2,11.2-5.9c6.1-0.7,8.1-4.8,13.3-7C418.7,549,420.3,545.8,419.4,540.7z M420.5,579.9
			c-0.9-6.1-13.3,1.8-10.6,3.6C415.2,587,421.4,586,420.5,579.9z"/>
		<path class="st1" d="M537,492.9c2.9-1.2,6.2-1.6,7.8-1c1.4,0.6,1.9,2,2.1,3.6c2.5-0.4,7-1.1,8.6-1.6c2.2-0.8,7,1.9,7.6,0.3
			c0.5-1.6,2.2-5.4,4.3-5.4c2.2,0,0.8-5.6,3-5.9c2.2-0.3,7.6-5.1,7.6-5.1s-2.2-4.3-3-4.6s-3.5,2.7-8.4,2.7c-4.9,0-8.4,3.8-10.5,3.8
			c-2.2,0-8.9-2.2-13.5-2.4c-1.6-0.1-3.3-0.2-4.9-0.4C537.2,480.9,536.7,487.2,537,492.9z"/>
		<path class="st1" d="M697.6,549.8c-2.7,0.3-6.5,1.3-5.9,2.8c0.7,1.8-1.8,2.9-4.7,2.9c0,0-10.1-0.7-13-2.1
			c-2.2-1.1-11.8-0.5-16.4-0.2c0,0.2-0.1,0.4-0.2,0.5c-1.1,1.6-9.7,6-11.4,5.2c-1.6-0.8-2.4,2.7-5.7,3.5c-3.3,0.8-8.1-0.3-8.4,1.1
			c-0.3,1.3-2.4,5.1-4.3,7c-1.9,1.9-0.3,4-3,4.6c-1.8,0.4-2.5,3.6-3.5,6.5c0.2,0.1,0.3,0.2,0.5,0.3c4,1.2,7,5.9,6.5,10.4
			c-0.5,4.5,5.8,6.1,8.7,2.9c2.9-3.2,11,1.8,11,3.9c0,2.1-8.3-2.3-13,1.1c-4.7,3.4,3.6,6.6,2.5,10.2c-1.1,3.6,2.2,8.6,6.3,8.4
			c4.2-0.2,8.8,6.6,11.4,5.4c2.5-1.2-3.1-10.7-2.2-12.2c0.9-1.4,5.9,2.5,8.5-0.4c2.5-2.9-1.8-5-5.6-4.8c-3.8,0.2-0.2-5,4.3-2.3
			c4.5,2.7,6.7-0.7,8.8-1.1c2.2-0.4,2.7-8.1-4-9.8c-6.7-1.8-5.8,4.8-10.1,0.3c-4.3-4.5,4-2.7,4-6.4c0-3.8-6.7-9.1-9.9-13.6
			c-3.2-4.5,4.5-6.6,6.3-3.4c1.8,3.2,6.7,2.7,9.7,1.4c3.1-1.2-3.2-7,2.3-9.1c5.6-2.2,5.6,1.6,7.4,2.3c1.8,0.7,3.4-4.5,9.2-4.5
			c3,0,5.7,2,8.2,3.9c1.6-1.7,2.9-2.7,2.9-4.2c0-1.9,3.5-2.7,3.5-5.6C698.5,553.2,698,551.4,697.6,549.8z M687.4,640.2
			c-2.9-1.6-15.9,1.1-19.3-2.1c-3.4-3.2-10.4,2.5-7.4,3c4.3,0.7,10.8,4.5,17.8,4.7c7,0.2,16.6-3.2,16.4-5
			C694.8,639,690.3,641.9,687.4,640.2z"/>
		<path class="st1" d="M786.3,645.3c-0.4-2,2.3-6.1,6.5-7.7c4.1-1.6,2.5-4.7-0.2-2.3c-2.7,2.3-9.2,4.8-17.3,5.2
			c-8.1,0.4-10.6,5.7-5.6,8.6C776.2,652.8,786.7,647.2,786.3,645.3z"/>
		<path class="st1" d="M300.6,358.4c-1.5-1.1-2.9-2.3-4-3.6c-4.6-5.4-6.5-1.1-7.1,2.2c-0.6,3.2-4.9-1.1-7.6-1.6
			c-2.7-0.5,0.8-5.7,2.7-7c1.3-0.9,2.5-3.4,3.3-6.9c-0.5,0-1-0.1-1.5-0.3c-5-2-12.1-2-12.3,2.5c-0.2,4.5,5.6,2.9,5.8,5.7
			c0.2,2.9-5.8,2.1-9.9,5c-4.1,2.9-8.7-2-13,0.2c-4.3,2.1,4.7,4.7,1.4,9.1c-3.2,4.5,0.2,4.3,5.6,8.6c5.4,4.3-3.2,5.4-3.2,10.2
			c0,4.8-6.7,4.7-8.1,7.9c-1.4,3.2,5.8,9.7,12.1,9.7c4.5,0,15-2.9,21.1-8.6c6.1-5.7,9.4-0.2,15-3c5.6-2.9,2.2-23.8,0-28.1
			C300.4,359.5,300.4,358.9,300.6,358.4z"/>
		<g>
			<g>
				<path class="st1" d="M303.1,338.9c-4.6-4.4-10.4,2.5-15.3,2.4c-0.8,3.5-2,6-3.3,6.9c-1.9,1.4-5.4,6.5-2.7,7
					c2.7,0.5,7.1,4.9,7.6,1.6c0.5-3.2,2.4-7.6,7.1-2.2c1.1,1.3,2.5,2.5,4,3.6c0.7-2.5,6.4-2.9,9.4-5.8
					C313.6,349,308.2,343.8,303.1,338.9z M401.7,383.3c0.4-5.4-11.5-9.1-12.8-6.3c-1.3,2.9-4,2.5-5.9-0.7c-2-3.2,1.8-6.3-0.2-6.6
					c-2-0.4-4.5-4.8-4-6.6c0.5-1.8-3.1-13.3-9.2-14.7c-6.1-1.4-7-10-8.1-14.7c-1.1-4.7-5.1-2.2-8.1-6.1c-3.1-3.9-8.3-2-11-1.8
					c-2.7,0.2,0-5,4.3-7.9c4.3-2.9,9.4-18.1,9.4-21.1c0-3-18.9-2.9-22.5-1.1c-3.6,1.8-7.2-2.7-4.1-3.9c3.1-1.3,9.6-7.5,9.2-10
					c-0.4-2.5,4.5-4.8,1.8-7.2c-2.7-2.3-3.1,3-5.4,4.8c-2.3,1.8-7.6,1.3-13.2,0.2c-5.6-1.1-7.7,6.8-7.6,10.2
					c0.2,3.4-6.5,5.4-5.4,8.2c1.1,2.9-1.3,5-3.1,3.4c-1.8-1.6-3.8-5.6-7.4-2.7c-3.6,2.9,4.1,6.6,8.8,7.2c4.7,0.5-3.6,3.9-4.5,8.9
					c-0.9,5,6.1,2.9,6.5,6.5c0.4,3.6-10.1,4.1-10.1,7.5c0,3.4,5.9-1.6,8.7-3c2.7-1.4-1.4,8.4,5.1,7.3c6.5-1.1,4.7-9.8,7-9.5
					c2.3,0.4-1.1,4.7,0.9,8.4c2,3.8-4.7,9.5-4.3,12.2c0.4,2.7,13.3,2.7,17.5-1.6c4.2-4.3,6.1,0.4,3.2,3.6c-2.9,3.2-1.6,6.3,2,7.5
					c3.6,1.2,4.9,1.6,3.2,4.5c-1.6,2.9-0.2,8.2-1.1,10.9c-0.9,2.7-12.1,2.3-12.4,0.5c-0.4-1.8-5.1-0.5-3.8,2c1.3,2.5-4,5.2-3.6,7.5
					c0.4,2.3,7,1.8,7.2,4.7c0.2,2.9-4.9,6.3-11.7,8.2c-6.9,2,1.4,7.3,4.7,5c3.2-2.3,2.5,1.6,7.2,1.6c4.7,0,7.6,3.8,12.8,1.8
					c5.2-2,5.1,0,1.1,3c-4,3-9.9-0.2-13.5,1.8c-3.6,2-18.3,15.6-15.5,19c1.6,2,3.8-2.9,9-5c5.2-2.1,6.1,1.4,9,1.8
					c2.9,0.4,3.1-5.9,5.4-5.4c2.3,0.5,4.5-2,8.8-1.2c4.3,0.7,7.4-0.9,9.6-2.7c2.2-1.8,7.9,3.6,9.7,2.3c1.8-1.3,9.7-2.7,13.7-2.5
					c4,0.2,14.2-4.5,16.9-7c2.7-2.5-1.6-3-5.2-2.5c-3.6,0.5-2.9-3.6,0.9-7.2C395.4,391.4,401.4,388.7,401.7,383.3z M293.4,293.4
					c4.9-0.2,10.5-8.4,8.1-10.8C299.2,280.3,289.8,293.5,293.4,293.4z M363.1,254.5c3.1-3,6.7-14.7,2-13.4
					C360.4,242.4,361.8,255.9,363.1,254.5z"/>
			</g>
			<g>
				<path class="st1" d="M303.1,338.9c-4.6-4.4-10.4,2.5-15.3,2.4c-0.8,3.5-2,6-3.3,6.9c-1.9,1.4-5.4,6.5-2.7,7
					c2.7,0.5,7.1,4.9,7.6,1.6c0.5-3.2,2.4-7.6,7.1-2.2c1.1,1.3,2.5,2.5,4,3.6c0.7-2.5,6.4-2.9,9.4-5.8
					C313.6,349,308.2,343.8,303.1,338.9z M401.7,383.3c0.4-5.4-11.5-9.1-12.8-6.3c-1.3,2.9-4,2.5-5.9-0.7c-2-3.2,1.8-6.3-0.2-6.6
					c-2-0.4-4.5-4.8-4-6.6c0.5-1.8-3.1-13.3-9.2-14.7c-6.1-1.4-7-10-8.1-14.7c-1.1-4.7-5.1-2.2-8.1-6.1c-3.1-3.9-8.3-2-11-1.8
					c-2.7,0.2,0-5,4.3-7.9c4.3-2.9,9.4-18.1,9.4-21.1c0-3-18.9-2.9-22.5-1.1c-3.6,1.8-7.2-2.7-4.1-3.9c3.1-1.3,9.6-7.5,9.2-10
					c-0.4-2.5,4.5-4.8,1.8-7.2c-2.7-2.3-3.1,3-5.4,4.8c-2.3,1.8-7.6,1.3-13.2,0.2c-5.6-1.1-7.7,6.8-7.6,10.2
					c0.2,3.4-6.5,5.4-5.4,8.2c1.1,2.9-1.3,5-3.1,3.4c-1.8-1.6-3.8-5.6-7.4-2.7c-3.6,2.9,4.1,6.6,8.8,7.2c4.7,0.5-3.6,3.9-4.5,8.9
					c-0.9,5,6.1,2.9,6.5,6.5c0.4,3.6-10.1,4.1-10.1,7.5c0,3.4,5.9-1.6,8.7-3c2.7-1.4-1.4,8.4,5.1,7.3c6.5-1.1,4.7-9.8,7-9.5
					c2.3,0.4-1.1,4.7,0.9,8.4c2,3.8-4.7,9.5-4.3,12.2c0.4,2.7,13.3,2.7,17.5-1.6c4.2-4.3,6.1,0.4,3.2,3.6c-2.9,3.2-1.6,6.3,2,7.5
					c3.6,1.2,4.9,1.6,3.2,4.5c-1.6,2.9-0.2,8.2-1.1,10.9c-0.9,2.7-12.1,2.3-12.4,0.5c-0.4-1.8-5.1-0.5-3.8,2c1.3,2.5-4,5.2-3.6,7.5
					c0.4,2.3,7,1.8,7.2,4.7c0.2,2.9-4.9,6.3-11.7,8.2c-6.9,2,1.4,7.3,4.7,5c3.2-2.3,2.5,1.6,7.2,1.6c4.7,0,7.6,3.8,12.8,1.8
					c5.2-2,5.1,0,1.1,3c-4,3-9.9-0.2-13.5,1.8c-3.6,2-18.3,15.6-15.5,19c1.6,2,3.8-2.9,9-5c5.2-2.1,6.1,1.4,9,1.8
					c2.9,0.4,3.1-5.9,5.4-5.4c2.3,0.5,4.5-2,8.8-1.2c4.3,0.7,7.4-0.9,9.6-2.7c2.2-1.8,7.9,3.6,9.7,2.3c1.8-1.3,9.7-2.7,13.7-2.5
					c4,0.2,14.2-4.5,16.9-7c2.7-2.5-1.6-3-5.2-2.5c-3.6,0.5-2.9-3.6,0.9-7.2C395.4,391.4,401.4,388.7,401.7,383.3z M293.4,293.4
					c4.9-0.2,10.5-8.4,8.1-10.8C299.2,280.3,289.8,293.5,293.4,293.4z M363.1,254.5c3.1-3,6.7-14.7,2-13.4
					C360.4,242.4,361.8,255.9,363.1,254.5z"/>
			</g>
		</g>
		<path class="st1" d="M507.1,314.4c-1.8-0.9-2.5-6.6-0.4-8.4c2.2-1.8,3.1-8.6,1.3-10.4c-1.8-1.8-8.3,0-8.8,4.8
			c-0.5,4.8-5.8,2.7-7.2,3.8c-1.4,1.1,2.9,3.2,0.5,5.4c-2.3,2.1-3.2-3.2-7-3.6c-3.8-0.4-4.1,5.7-6.1,8.8c-2,3.1-0.7,9.5,0,13.8
			c0.7,4.3,5.9,7,4.7,10.6c-0.6,1.7,0.6,3.5,1.9,5.4c4.8,0.1,9.2,0.4,11.1,1.1c0.8,0.3,2.4,0.2,4.5-0.1c-1.6-2.6-5.1-4.6-4.9-6.5
			c0.4-2.5,3.8-0.9,6.3,1.2c2.5,2.1,8.1,2.5,8.7-0.2c0.3-1.7-0.9-9.3-4.3-7.5c-3.4,1.8-4.3,1.1-5.6-0.7c-1.3-1.8,2.5-4.7,3.4-7.5
			c0.9-2.9,6.8-1.8,7.7-4.1C513.8,317.8,508.9,315.3,507.1,314.4z M534.4,325.3c-1.4-0.9-2.5,2.5-4.2,2.9c-1.6,0.4-3.4-6.8-4.1-2.9
			c-0.7,3.9-4.3-1.6-7.9,3.4c-3.6,5,2.2,9.5,4.7,11.1c2.5,1.6-0.2,3.9-3.4,3.2c-3.2-0.7-1.3,4.6,3.2,5.4c4.5,0.7,9.4-7.9,8.8-10
			C530.9,336.2,536.1,326.4,534.4,325.3z"/>
		<path class="st1" d="M667.7,134.7c-1.7-1.7-5.2-6.3-2.3-6.3c2.9,0,4.1-8.6,0.6-10.4c-3.5-1.7,0-9.2-2.9-10.9
			c-2.9-1.7-1.2-7.5-0.6-11.5c0.6-4-11-7.5-17.4-10.4c-6.4-2.9-9.3-7.5-14.5-10.4c-5.2-2.9-7,4.6-7,9.2c0,4.6-4.6,5.2-8.1,2.3
			c-3.5-2.9-7.5,0-12.7-2.3c-5.2-2.3-2.9,5.2-2.9,8.6c0,3.4-5.8,3.4-9.3,3.4c-3.5,0-9.3,2.9-9.3,6.9c0,4-5.2,6.3-3.5,8.6
			c1.7,2.3-0.6,4.6-2.9,6.3c-2.3,1.7-4.6,7.5-6.4,9.2c-1.7,1.7,1.2,4.6-2.3,6.9c-3.5,2.3-7.5,0.6-9.3,2.3c-1.7,1.7,0,5.8-0.6,10.9
			c-0.6,5.2-4.6,10.9-8.1,15.5c-3.5,4.6,1.2,5.8,2.9,6.3c1.7,0.6,1.7,3.5,0,6.9c-1.7,3.5-5.8,1.2-8.1,0.6c-2.3-0.6-8.7,2.3-12.2,8.1
			c-3.5,5.8-2.3,9.2-1.2,12.1c1.2,2.9-2.9,6.3,0,12.1c2.9,5.8-1.2,6.9-0.6,11.5c0.6,4.6,7.5,4,8.1,8.6c0.6,4.6-2.3,6.3-4.6,6.3
			c-2.3,0-1.7,4.6,0.6,5.8c2.3,1.2,1.7,9.2,0.6,11.5c-1.2,2.3-8.7,0-8.1,2.9c0.6,2.9-1.7,7.5-1.7,9.8c0,2.3-0.6,9.8-2.9,8.1
			c-0.9-0.7-2.4-0.7-3.8-0.5c0,0.4,0,0.7,0,1.1c-0.2,4.5,1.4,9,5.4,12.2c4,3.2,0.9,8.1,4.3,12.5c3.4,4.5,2.3,7.7,6.1,10.9
			c3.8,3.2,4.2,5,2.5,9.1c-1.6,4.1,3.2,3,3.4,5.6c0.2,2.5-1.1,7.7,0.2,10.2c1.3,2.5,3.8,0,9.6-0.2c5.8-0.2,4.3-3.8,4.5-7.2
			c0.2-3.4,3.1-1.8,3.8-3.9c0.7-2.2,6-2.7,10.1-0.9c4.1,1.8,6.3-1.2,7-5.6c0.7-4.3,3.1,0.9,4.3,1.8c1.3,0.9,5.1-6.6,6.8-11.5
			c1.8-4.8-0.2-3.9-4.3,0.7c-4.1,4.7-1.8-4.6-0.2-8.4c1.6-3.8,1.4-14.7,2-17.2c0.5-2.5,1.6-6.3,6.8-7.3c5.2-1.1,12.1-7.5,11-10.2
			c-1.1-2.7,7.2-7.2,7.2-9.9c0-2.7-8.7-10.9-11.5-12.7c-2.9-1.8-9.2-0.4-8.7-2.3c0.5-2-0.7-9.7-1.4-13.6c-0.7-3.9,4.5-8.1,4.5-11.8
			c0-3.8-0.2-8.1,3.2-9.3c3.4-1.2,1.3-4.5,5.8-5.5c4.5-1.1,3.6-7.5,8.5-9.5c4.9-2,5.2-3.6,11.5-6.6c6.3-3.1,16.9-10.2,18.7-14
			c1.8-3.8-6.5-7.7-1.3-11.6c5.2-3.9,0.9-8.4,4.7-9.9c3.8-1.4,5.2-3.4,7.9-6.3c2.7-2.9,6.3-0.2,12.8-1.3c2.4-0.4,4.5-0.2,6.6,0.3
			C669.2,137.9,668.5,135.5,667.7,134.7z M606.8,292.3c-6.8,0.2-10,13.6-8.3,15.8C600,309.9,613.7,292.2,606.8,292.3z"/>
		<path class="st1" d="M713.7,269.5c1.5-3.2,5.4-3.7,2.5-8c-0.6,0.5-1.3,0.9-2.7,1.2c-5.2,1.4-16.6-3.6-23.1-2.3
			c-6.5,1.2-19.6,1.2-22.7,4.5c-3.1,3.2-10.8,4.1-7.4,7c3.4,2.9,0,4.3,2.5,7.7c2.5,3.4,3.8,4.8,7.2,4.1c3.4-0.7,6.1,1.1,2.5,4.8
			c-0.1,0.1-0.1,0.1-0.1,0.2c5.8-0.5,12.2-0.9,13.1-0.2c1.4,1.1,10.1,7.9,12.3,7.2c1.3-0.4,7.2,0.2,11.6,0.8
			c-0.5-1.3-0.5-2.6,0.4-3.4c1.6-1.3,5.1-1.3,3.2-4c-1.9-2.7-2.4-3.2-2.7-6.5c-0.3-3.2-1.1-4.8-0.8-7
			C709.9,273.5,712.1,273,713.7,269.5z M649.9,278.2c-6.5,1.8-7.4,10.7-4.9,10.6c3.2-0.2,10.6-6.3,12.6-8.3
			C659.6,278.5,656.4,276.4,649.9,278.2z M655.3,273c1.5-2.7-10.4-1.5-7.7,0.9C649.5,275.7,653.8,275.7,655.3,273z"/>
		<path class="st1" d="M745.4,58.2c-0.7,2.7-5.6,2.2-5.4-0.5c0.2-2.7-7.6-4.8-7.9-6.1c-0.4-1.2,3.2-1.1,6.1,0.5
			c2.9,1.6,4.9,0.5,8.1-2.5c3.3-3,7.8-0.5,8.3-3.2c0.5-2.7-5.2-4.5-6.3-6.1c-1.1-1.6-5.2-3.8-9.2-3c-4,0.7-4.1-0.9-6.5-3
			c-2.3-2.2-9.5,1.4-9.5,6.4c0,5-4.5,3.8-2.9,1.1c1.6-2.7-2.2-5.9,1.5-6.8c3.6-0.9,1.6-6.3-5.1-6.8c-6.7-0.5-9.2,5-7.6,6.8
			c1.6,1.8-4.5,9.5-7.2,9.5c-2.7,0,0.4-6.6,0.2-10.2c-0.2-3.6-2.7-1.6-7.8,4.1c-5,5.7-8.8,10.9-11.7,11.5c-2.9,0.5-2.5-5.2,2.2-7.7
			c4.7-2.5,4.9-9.3,7.9-9.3c3.1,0,3.1-3.6-1.4-4.7c-4.5-1.1-5.2,3.9-6.7,5.4c-1.4,1.4-8.8-2.5-8.6-1.1c0.2,1.4-4,2-2.2,4.7
			c1.8,2.7-0.9,5-2.7,1.8c-1.8-3.2-6.3-0.7-8.5,2.9c-2.2,3.6-5.1,3.4-2.9,4.7c2.2,1.3,2,6.1-1.3,7c-3.3,0.9-2-8.8-4.5-7.9
			c-2.5,0.9-0.9-4.7,2.5-4.7c3.4,0,6.9-5,6.5-6.3c-0.6-2.1-4.3-1.6-4.3,1.1c0,2.7-5.4,2.2-9.9,2c-4.5-0.2-4.3,5.2,0.7,8.1
			c5,2.9-0.9,4.7-3.4,2.5c-2.5-2.2-6.5-1.1-9.2,0.2c-2.7,1.3,6.5,4.5,6.9,6.1c0.4,1.6-4.7-2-5.8-0.7c-1.1,1.3-6.1-0.9-6.5-3.9
			c-0.4-3-8.5,1.3-4,2.3c4.5,1.1,2.9,3.9,2.9,7.9s-5.2,0.9-4.1-2.5c1.1-3.4-3.3-2.7-6.8-0.5c-3.6,2.2,0.5-3.9-0.9-7
			c-1.4-3-4.7,0-8.5,0.7c-3.8,0.7-5.8,0.9-3.4,3.4c2.3,2.5,2,6.1-1.1,5.6c-3.1-0.5-4.3,0-4,2.9c0.4,2.9-4,3-4.3,0.5
			c-0.4-2.5-6.5-1.8-8.3,1.1c-1.8,2.9-6.9,5-6.3,8.2c0.5,3.2,4.5-1.6,7.8-0.5c3.2,1.1-0.2,2.7,1.6,4.3c1.8,1.6,1.4,5.6-1.1,3.2
			c-2.5-2.3-5.8-3.1-6.3,0.7c-0.5,3.8-3.2-0.5-5.4-3.2c-2.2-2.7-4.3,5-6.7,3.2c-2.3-1.8,4.7-7.3,2.9-10c-1.8-2.7-3.1,1.6-7.2,5.7
			c-4.1,4.1-9.7,3.9-7.7,5.9c2,2-4.2,3-5.2,6.4c-1.1,3.4-9.6,4.7-15,8.3c-5.4,3.6,1.1,3.8,4.2,0.4c3.1-3.4,4.2-1.4,9-4.5
			c4.9-3,10.1-5.6,11.9-4.3c1.8,1.3,4.9,2.2,7.2-1.1c2.3-3.2,5.2-2.5,7.6-0.5c2.3,2-4,3.6-1.1,6.5c2.9,2.9-3.4,4.5-3.4,2
			c0-2.5-3.6-4.7-4.9-2.3c-1.3,2.3-3.4,4.8-5.8,5c-2.3,0.2-4.9,4.5-4.9,8.8c0,4.3-4.2,0-4.5,3.8c-0.4,3.8-6.1,10.4-11.2,15.2
			c-5,4.8-0.4,5.9-2,9c-1.6,3-7.6,0.4-9.5,1.6c-2,1.3,1.1,8.8-1.6,11.1c-2.7,2.3,0,5.6,0,8.2c0,2.7-7-1.6-7.6,1.1
			c-0.5,2.7-6.7,2-8.5,2.7c-1.8,0.7,3.6,5,6.9,7.5c3.2,2.5-3.1,4.5-3.8,1.6c-0.7-2.9-5.2,1.8-10.8,4.3c-5.6,2.5-3.2,7.5-7.6,7.7
			c-4.3,0.2-3.1,7-5.9,9.1c-2.9,2.2-2.2-5-6.7-5.2c-4.5-0.2-4.1,3-1.4,6.8c2.7,3.8-4.1,0.9-6.7,4.1c-2.5,3.2-9.7,1.6-11.7,4.3
			c-2,2.7,5.4,2.7,6.5,4.8c1.1,2.2-6.5,1.1-10.5,0.2c-4-0.9-2.9,5-6.5,4.3c-3.6-0.7-8.1,3-5.6,5.6c2.5,2.5-2,2.9-4.5,1.2
			c-2.5-1.6-4.7,2.3-5.6,5.4c-0.9,3,4.9,4.7,4.7,6.1c-0.2,1.4-4.7,3.8-1.4,4.5c3.2,0.7,0.9,3.6-1.3,4.5c-2.2,0.9-2.2,3.1,0,5.7
			c2.2,2.7-3.8,3.2-0.9,7.3c2.9,4.1,5-1.1,6.3,2c1.3,3.1,4.7,0.4,8.7-3.2c4-3.6,5.4,3.9,2.2,3.8c-3.2-0.2-7,1.8-6.3,5
			c0.7,3.2-5,2.7-4.9-1.3c0.2-3.9-6.7,0.7-4.1,3.6c2.5,2.9-0.9,4.5-0.9,7.2c0,2.7,4.9,2.1,6.8-0.9c2-3,5.2-2.3,6.5,0.7
			c1.3,3-3.1,0.7-3.1,4.8c0,4.1-2.7,0.5-5.1,3.8c-2.3,3.2,9.2,9.1,12.8,10c3.6,0.9,7,4.8,14.2,3.8c7.2-1.1,20.9-14.3,22.7-16.7
			c1.8-2.3,5.8,0.4,8.5-1.8c2.7-2.1,1.1-7.7,3.1-8.8c2-1.1,3.1,5.9,4.9,6.6c1.6,0.6,2.8,1.9,2.9,5.5c1.4-0.2,2.9-0.1,3.8,0.5
			c2.3,1.7,2.9-5.8,2.9-8.1c0-2.3,2.3-6.9,1.7-9.8c-0.6-2.9,6.9-0.6,8.1-2.9c1.2-2.3,1.7-10.4-0.6-11.5c-2.3-1.2-2.9-5.8-0.6-5.8
			c2.3,0,5.2-1.7,4.6-6.3c-0.6-4.6-7.5-4-8.1-8.6c-0.6-4.6,3.5-5.8,0.6-11.5c-2.9-5.8,1.2-9.2,0-12.1c-1.2-2.9-2.3-6.3,1.2-12.1
			c3.5-5.8,9.8-8.6,12.2-8.1c2.3,0.6,6.4,2.9,8.1-0.6c1.7-3.4,1.7-6.3,0-6.9c-1.7-0.6-6.4-1.7-2.9-6.3c3.5-4.6,7.5-10.4,8.1-15.5
			c0.6-5.2-1.2-9.2,0.6-10.9c1.7-1.7,5.8,0,9.3-2.3c3.5-2.3,0.6-5.2,2.3-6.9c1.7-1.7,4.1-7.5,6.4-9.2c2.3-1.7,4.6-4,2.9-6.3
			c-1.7-2.3,3.5-4.6,3.5-8.6c0-4,5.8-6.9,9.3-6.9c3.5,0,9.3,0,9.3-3.4c0-3.4-2.3-10.9,2.9-8.6c5.2,2.3,9.3-0.6,12.7,2.3
			c3.5,2.9,8.1,2.3,8.1-2.3c0-4.6,1.7-12.1,7-9.2c0.4,0.2,0.8,0.5,1.2,0.7c1.7-3.8,5-6.3,8.1-5.9c4.6,0.6,7.5,8.6,13.3,9.8
			c5.8,1.2,11.6,3.5,13.3,0.6c1.7-2.9,5.8,1.7,9.3,0.6c3.5-1.2,3.5,6.3,7,1.7c3.5-4.6-0.6-7.5,5.2-6.9c5.8,0.6,2.3-6.3,2.3-10.4
			c0-4,7.5-4.6,7.5-8.1c0-3.5,10.4-0.6,12.2-2.9c1.7-2.3,7.5-4,9.9,0c2.3,4,12.2,5.2,12.7,8.6c0.3,1.7,0,4.3,0,6.8
			c1.6-1.6,3.6-2.8,5.6-2.8c3.6,0,6.8-5.4,10.1-4.7c2.7,0.6,5.4,0.1,6.2-4.3C751.6,56,746.1,55.8,745.4,58.2z"/>
		<path class="st1" d="M858.1,938.9"/>
		<path class="st1" d="M924.7,587c-5.3-2.4-1.9-8.1-7.2-9.1c-5.3-1-1.4,6.2-4.3,6.2c-2.9,0-0.5,8.1,0.5,10c1,1.9-1.9,12.4,0,12.9
			c1.9,0.5,6.2,8.1,5.8,9.6"/>
		<g>
			<g>
				<path class="st1" d="M646.6,339.9c-1.6,0.8-6-0.8-7.3-2.7c-1.1-1.5-4.4-0.9-7.4-0.7c0.7,0.4,1.4,0.9,1.9,1.8
					c1.6,2.9-6.5,3.2-4,6.6c2.5,3.4-5.8,3.6-5.8,0c0-3.6-8.7-1.8-8.3,0.5c0.1,0.8-0.1,1.9-0.7,2.9c2.4,0.8,5.1,1.8,6.2,2.2
					c1.6,0.6,23.2,2.9,31.7,1.3c-0.5-1.6,0.4-6.3,0.4-8C653.4,341.8,648.3,339.1,646.6,339.9z M893.7,128.4
					c-4.2-1.1-5.8,0.7-7.7,3.8c-2,3-7.8,4.3-10.8,4.7c-3.4,0.4-8.5,6.3-11.7,8.4c-3.2,2.2-3.8,6.3,0.7,10.6c4.5,4.3,5.4,7.2,5.1,9.5
					c-0.4,2.3-12.6,1.6-14.6-0.9c-2-2.5-9.9-3.4-12.6-2.9c-2.7,0.5-10.1-8.1-13.9-8.2c-3.8-0.2-6.1,4.5-7.4,6.8
					c-1.3,2.3,1.8,3.1,3.6,7c1.8,3.9,8.5,4.1,11.9,4.1c3.4,0,2.2,5.2,1.1,7.3c-1.1,2.2-7.4,3.8-9.2,1.4c-1.8-2.3-9.4,0-9.6-2.9
					c-0.2-2.9-5.6-7.2-11.2-6.3c-5.6,0.9-6.7-2.7-6.3-7c0.4-4.3-3.1-6.8-2.9-8.8c0.2-2-2.5-5.9,0.4-7.9c2.9-2,0.7-5,0.9-7.7
					c0.2-2.7-4.9-6.8-9.4-6.8c-4.5,0-3.6-4.5-7.4-5.4c-3.8-0.9-11.4-7.2-11.9-9.9c-0.5-2.7-6.3-3.1-4.3-3.9c2-0.9,6.5,0.4,9.7,3.6
					c3.2,3.2,8.5,6.1,16.9,7.2c8.5,1.1,11.9,5,21.3,6.6c9.4,1.6,15,2.7,28.5,4.7c13.5,2,31.5-11.7,35.3-15.4
					c3.8-3.8-1.1-11.5-1.1-14.3c0-2.9-6.1-3.2-7-5.4c-0.9-2.1-4.9-6.1-10.1-6.1c-5.2,0-5.9-5.9-10.1-5.6c-4.2,0.4-7-1.8-17.8-9
					c-10.8-7.2-25.8-12.4-28.5-11.1c-2.7,1.3-4.5,2-6.3-0.7c-1.8-2.7-5.9-2.3-8.8-0.2c-2.9,2.1-5.8-2-11.2-0.7
					c-5.4,1.3-8.3-2.3-6.9-3.9c1.4-1.6,9.4-0.2,9-2.9c-0.4-2.7-3.2,0-8.1-3.2c-4.9-3.2-7.6-1.1-8.7,1.6c-1.1,2.7-4.9,2-7.4-0.4
					c-0.2-0.2-0.5-0.4-0.8-0.6c-0.8,4.5-3.5,4.9-6.2,4.3c-3.3-0.7-6.5,4.7-10.1,4.7c-3.6,0-7.6,3.9-8.3,7.2
					c-0.7,3.2-4.7,1.4-4.7,3.6c0,2.2,0,4.3-1.8,6.5c-1.8,2.2,0,3.2,1.8,6.8c1.8,3.6,5.8,3.2,7.6,4.3c1.8,1.1,8.7,6.8,8.7,9
					c0,2.2-5.4,7.5-7.6,9c-2.2,1.4-5.1,5-3.6,7.2c1.4,2.2,7.6,11.1,11.5,18.3c4,7.2-1.4,3.9-4,7.2c-2.5,3.2,1.1,7.2,1.8,9.3
					c0.7,2.1-3.2,1.8-2.9,3.6c0.4,1.8,5.8,2.5,6.1,3.9c0.4,1.4-3.6,3.2-1.8,6.1c1.8,2.9,6.1,2.9,6.5,6.4c0.4,3.6-7.9,3.9-7.6,6.8
					c0.4,2.9,10.8,6.4,15.5,11.8c4.7,5.4,4.3,6.8,3.2,9.7c-2.2,5.8-15.1,10.8-18,17.2c-2.9,6.5-13.7,10-18.7,15
					c-2.1,2-4.1,4.8-5.8,7.4c2.1-0.5,3.8-1.2,5.1-1.8c2.9-1.4,4.9,5.6,7.8,7.9c2.9,2.3,8.7,0.2,10.6,2.3c2,2.1-1.6,2.3-5.8,1.6
					c-4.2-0.7-5.2,1.8-11.7,3.9c-4.8,1.6-4.4,3.3-6,4.7c2.9,4.2-1,4.8-2.5,8c-1.6,3.5-3.8,4-4.1,6.2c-0.3,2.2,0.5,3.8,0.8,7
					c0.3,3.2,0.8,3.8,2.7,6.5c1.9,2.7-1.6,2.7-3.2,4c-1.6,1.3-0.5,4.3,1.6,6.5c2.2,2.1,2.2,4.8,1.4,6.7c-0.8,1.9,1.9,5.1,3.8,7
					c1.9,1.9,1.6,7,3.2,8.3c1.6,1.3,3.5,2.7,6.5,1.9c3-0.8,4.9,0.5,6.2,3c1.4,2.4,3.5,1.3,6.5,0c3-1.3,9.7,2.4,11.4,3.2
					c1.6,0.8,0.8,5.4,1.1,8.3c0.3,3-1.6,6.7,1.4,8.6c3,1.9,2.2,6.2,5.7,7.5c3.5,1.3,4.9,6.2,7,6.7c2.2,0.5,6.2,3.8,6.8,6.2
					c0.5,2.4-3.8,4.6-6.2,5.6c-2.4,1.1-7-3.2-8.6-1.3c-1.6,1.9,0.5,5.4,1.9,11.3c1.4,5.9,2.4,6.4,5.1,6.4c2.7,0,3.8-1.9,5.7-3
					c1.9-1.1,6.2,0.5,8.1-0.3c1.9-0.8,8.6-1.1,10,1.1c1.4,2.1,2.7,7.3,1.6,9.1c-1.1,1.9,1.3,4,2.7,6.7c1.3,2.7,7,1.3,8.9,2.2
					c1.9,0.8,6.2,6.7,5.4,9.4c-0.8,2.7,2.7,3.2,4.6,2.4c1.9-0.8,3.8,1.3,5.9,2.7c2.2,1.3,4.1,0.8,6.2-0.5c2.2-1.3,5.7-2.4,6.8-0.5
					c1.1,1.9,5.4,5.4,5.4,6.5c0,1.1,6.8,0,10,1.6c3.2,1.6,6.8,0.8,10.3,2.7c3.5,1.9,6.8,2.1,7,4.3c0.3,2.1-3.5,4-3.5,5.1
					c0,1.1,3,1.9,3,3.5c0,1.6-3.8,1.6-4.3,3c-0.5,1.3,2.2,3.2,2.7,4.6c0.5,1.3-2.2,5.9-2.2,7.3c0,1.3-8.1-0.3-10-0.3
					s-7.6,6.2-9.5,6.5c-1.6,0.2-0.9,3.2-0.3,5.7c5.8-1.1,11.8-1.6,12.4-0.3c1.1,2.1-12.6,7.9-15.1,8.8c-2.5,0.9,4.9,4.7,4.7,6.8
					c-0.2,2.1-7.9,2.7-7.2,7c0.7,4.3-2.5,5.2-6.7,5.2c-4.1,0-5.2,2.5-3.2,2.9c2,0.4,1.8,5.7,9.6,7.7c7.7,2,16,9.1,22.7,16.3
					c0.9,1,2,1.8,3.2,2.5c1.9-1.1,3.6-2,4.6-2.1c3.8-0.5,10.8,1.6,14.6,4.3c3.8,2.7,17.3-0.5,18.9,1.6c1.6,2.1,4.9,4.8,7.6,4.8
					c2.7,0,5.4,5.4,7.6,3.8c2.2-1.6,10.3-1.6,12.4-1.6c2.2,0,2.2,1.6,4.3,1.6"/>
			</g>
			<g>
				<path class="st1" d="M646.6,339.9c-1.6,0.8-6-0.8-7.3-2.7c-1.1-1.5-4.4-0.9-7.4-0.7c0.7,0.4,1.4,0.9,1.9,1.8
					c1.6,2.9-6.5,3.2-4,6.6c2.5,3.4-5.8,3.6-5.8,0c0-3.6-8.7-1.8-8.3,0.5c0.1,0.8-0.1,1.9-0.7,2.9c2.4,0.8,5.1,1.8,6.2,2.2
					c1.6,0.6,23.2,2.9,31.7,1.3c-0.5-1.6,0.4-6.3,0.4-8C653.4,341.8,648.3,339.1,646.6,339.9z M893.7,128.4
					c-4.2-1.1-5.8,0.7-7.7,3.8c-2,3-7.8,4.3-10.8,4.7c-3.4,0.4-8.5,6.3-11.7,8.4c-3.2,2.2-3.8,6.3,0.7,10.6c4.5,4.3,5.4,7.2,5.1,9.5
					c-0.4,2.3-12.6,1.6-14.6-0.9c-2-2.5-9.9-3.4-12.6-2.9c-2.7,0.5-10.1-8.1-13.9-8.2c-3.8-0.2-6.1,4.5-7.4,6.8
					c-1.3,2.3,1.8,3.1,3.6,7c1.8,3.9,8.5,4.1,11.9,4.1c3.4,0,2.2,5.2,1.1,7.3c-1.1,2.2-7.4,3.8-9.2,1.4c-1.8-2.3-9.4,0-9.6-2.9
					c-0.2-2.9-5.6-7.2-11.2-6.3c-5.6,0.9-6.7-2.7-6.3-7c0.4-4.3-3.1-6.8-2.9-8.8c0.2-2-2.5-5.9,0.4-7.9c2.9-2,0.7-5,0.9-7.7
					c0.2-2.7-4.9-6.8-9.4-6.8c-4.5,0-3.6-4.5-7.4-5.4c-3.8-0.9-11.4-7.2-11.9-9.9c-0.5-2.7-6.3-3.1-4.3-3.9c2-0.9,6.5,0.4,9.7,3.6
					c3.2,3.2,8.5,6.1,16.9,7.2c8.5,1.1,11.9,5,21.3,6.6c9.4,1.6,15,2.7,28.5,4.7c13.5,2,31.5-11.7,35.3-15.4
					c3.8-3.8-1.1-11.5-1.1-14.3c0-2.9-6.1-3.2-7-5.4c-0.9-2.1-4.9-6.1-10.1-6.1c-5.2,0-5.9-5.9-10.1-5.6c-4.2,0.4-7-1.8-17.8-9
					c-10.8-7.2-25.8-12.4-28.5-11.1c-2.7,1.3-4.5,2-6.3-0.7c-1.8-2.7-5.9-2.3-8.8-0.2c-2.9,2.1-5.8-2-11.2-0.7
					c-5.4,1.3-8.3-2.3-6.9-3.9c1.4-1.6,9.4-0.2,9-2.9c-0.4-2.7-3.2,0-8.1-3.2c-4.9-3.2-7.6-1.1-8.7,1.6c-1.1,2.7-4.9,2-7.4-0.4
					c-0.2-0.2-0.5-0.4-0.8-0.6c-0.8,4.5-3.5,4.9-6.2,4.3c-3.3-0.7-6.5,4.7-10.1,4.7c-3.6,0-7.6,3.9-8.3,7.2
					c-0.7,3.2-4.7,1.4-4.7,3.6c0,2.2,0,4.3-1.8,6.5c-1.8,2.2,0,3.2,1.8,6.8c1.8,3.6,5.8,3.2,7.6,4.3c1.8,1.1,8.7,6.8,8.7,9
					c0,2.2-5.4,7.5-7.6,9c-2.2,1.4-5.1,5-3.6,7.2c1.4,2.2,7.6,11.1,11.5,18.3c4,7.2-1.4,3.9-4,7.2c-2.5,3.2,1.1,7.2,1.8,9.3
					c0.7,2.1-3.2,1.8-2.9,3.6c0.4,1.8,5.8,2.5,6.1,3.9c0.4,1.4-3.6,3.2-1.8,6.1c1.8,2.9,6.1,2.9,6.5,6.4c0.4,3.6-7.9,3.9-7.6,6.8
					c0.4,2.9,10.8,6.4,15.5,11.8c4.7,5.4,4.3,6.8,3.2,9.7c-2.2,5.8-15.1,10.8-18,17.2c-2.9,6.5-13.7,10-18.7,15
					c-2.1,2-4.1,4.8-5.8,7.4c2.1-0.5,3.8-1.2,5.1-1.8c2.9-1.4,4.9,5.6,7.8,7.9c2.9,2.3,8.7,0.2,10.6,2.3c2,2.1-1.6,2.3-5.8,1.6
					c-4.2-0.7-5.2,1.8-11.7,3.9c-4.8,1.6-4.4,3.3-6,4.7c2.9,4.2-1,4.8-2.5,8c-1.6,3.5-3.8,4-4.1,6.2c-0.3,2.2,0.5,3.8,0.8,7
					c0.3,3.2,0.8,3.8,2.7,6.5c1.9,2.7-1.6,2.7-3.2,4c-1.6,1.3-0.5,4.3,1.6,6.5c2.2,2.1,2.2,4.8,1.4,6.7c-0.8,1.9,1.9,5.1,3.8,7
					c1.9,1.9,1.6,7,3.2,8.3c1.6,1.3,3.5,2.7,6.5,1.9c3-0.8,4.9,0.5,6.2,3c1.4,2.4,3.5,1.3,6.5,0c3-1.3,9.7,2.4,11.4,3.2
					c1.6,0.8,0.8,5.4,1.1,8.3c0.3,3-1.6,6.7,1.4,8.6c3,1.9,2.2,6.2,5.7,7.5c3.5,1.3,4.9,6.2,7,6.7c2.2,0.5,6.2,3.8,6.8,6.2
					c0.5,2.4-3.8,4.6-6.2,5.6c-2.4,1.1-7-3.2-8.6-1.3c-1.6,1.9,0.5,5.4,1.9,11.3c1.4,5.9,2.4,6.4,5.1,6.4c2.7,0,3.8-1.9,5.7-3
					c1.9-1.1,6.2,0.5,8.1-0.3c1.9-0.8,8.6-1.1,10,1.1c1.4,2.1,2.7,7.3,1.6,9.1c-1.1,1.9,1.3,4,2.7,6.7c1.3,2.7,7,1.3,8.9,2.2
					c1.9,0.8,6.2,6.7,5.4,9.4c-0.8,2.7,2.7,3.2,4.6,2.4c1.9-0.8,3.8,1.3,5.9,2.7c2.2,1.3,4.1,0.8,6.2-0.5c2.2-1.3,5.7-2.4,6.8-0.5
					c1.1,1.9,5.4,5.4,5.4,6.5c0,1.1,6.8,0,10,1.6c3.2,1.6,6.8,0.8,10.3,2.7c3.5,1.9,6.8,2.1,7,4.3c0.3,2.1-3.5,4-3.5,5.1
					c0,1.1,3,1.9,3,3.5c0,1.6-3.8,1.6-4.3,3c-0.5,1.3,2.2,3.2,2.7,4.6c0.5,1.3-2.2,5.9-2.2,7.3c0,1.3-8.1-0.3-10-0.3
					s-7.6,6.2-9.5,6.5c-1.6,0.2-0.9,3.2-0.3,5.7c5.8-1.1,11.8-1.6,12.4-0.3c1.1,2.1-12.6,7.9-15.1,8.8c-2.5,0.9,4.9,4.7,4.7,6.8
					c-0.2,2.1-7.9,2.7-7.2,7c0.7,4.3-2.5,5.2-6.7,5.2c-4.1,0-5.2,2.5-3.2,2.9c2,0.4,1.8,5.7,9.6,7.7c7.7,2,16,9.1,22.7,16.3
					c0.9,1,2,1.8,3.2,2.5c1.9-1.1,3.6-2,4.6-2.1c3.8-0.5,10.8,1.6,14.6,4.3c3.8,2.7,17.3-0.5,18.9,1.6c1.6,2.1,4.9,4.8,7.6,4.8
					c2.7,0,5.4,5.4,7.6,3.8c2.2-1.6,10.3-1.6,12.4-1.6c2.2,0,2.2,1.6,4.3,1.6"/>
			</g>
		</g>
		<path class="st1" d="M928.5,565.5c0.5-2-2-4.8-3.3-7c-3.3-0.8-7.6-1.5-10.8-1.1c-4.5,0.5-7.9,1.8-12.3,2.5
			c2.4,3.6,0.7,4.6,2.7,9.6c2.2,5.4,7.6,2.5,9.4,3.9c0.7,0.6,1.5,2.4,2.2,4.5c0.3,0,0.7-0.1,1.1,0c2,0.4,2.8,1.4,3.2,2.7
			c2.5,0.6,4.8,2.3,6,2.8"/>
		<path class="st1" d="M924.5,555.9c-1.1,2.1,4.7,6.8,4,9.7 M926.6,583.3c-1.2-0.5-3.4-2.2-6-2.8c0.8,2.1,0.7,4.9,4,6.4"/>
		<path class="st1" d="M558,602.3c-7.4,1.6-10.5,2.1-14.8,0c-4.3-2.1-11.3,2-10.3,4.8c0.7,2,3.6,4.5,12.6,6.8
			c9,2.3,10.1,8.4,13.9,8.6c3.8,0.2,4.1-3.4,3.2-8.2c-0.9-4.8,4.5-10.4,5-11.3C568.2,602.1,565.4,600.6,558,602.3z M488.2,561.6
			c-4,3.4-7.2-0.6-8.8,2.1c-2,3.4,6.1,8.6,4.5,15.6c-1.6,7,0.9,15.8,5,11.6c4.1-4.1,6.1-2.1,8.5-5.2c2.3-3,0.4-14.3,2-19.7
			C501,560.7,492.2,558.2,488.2,561.6z M576.5,555.9c-4.7-2.9-1.6-7.5-9-7.2c-7.4,0.4-16.2-8.8-18.9-19.3
			c-2.7-10.6-14.2-11.1-17.1-17.4c-2.9-6.3,2.7-7,0.2-12.2c-1.4-2.9,1.7-5.4,5.4-6.9c-0.3-5.7,0.2-12,0.6-16.1
			c-2.9-0.3-5.3-0.7-6.2-1.2c-1.4-0.8-1.6-5.1-2.4-5.1c-0.8,0-8.4,0-9.7,1.3c-1.3,1.3-5.4,3.8-7.6,2.4c-0.5-0.3-1-0.6-1.5-0.8
			l-2.4,2.2c0,0-0.4,2.9-1.8,2.9c-1.4,0-3.6-1.1-3.6,1.4c0,2.5-4,1.8-5.8,1.4c-1.8-0.4-4.3,0.4-4.3,2.5c0,2.1-0.4,6.8-3.2,4.3
			c-2.9-2.5-5.8-9-6.9-8.3c-1.1,0.7-3.6,8.6-6.1,8.6c-1.6,0-6.7,0.4-10.4,0.7c-1,3.1,0.1,4.9,1.4,5.7c1.4,0.8-0.8,4-2.4,4.8
			c-1.6,0.8-4.3,0-2.4,3c1.9,3,5.4,3.2,3.5,6.2c-1.9,3,0,5.6,2.7,5.9c2.7,0.3,6.5-0.3,5.7,1.9c-0.5,1.3-1.2,2.7-1.4,4.1
			c2.1-0.6,4-0.7,5.9-1.7c3.8-2,2.2-5.4,8.5-7.2c6.3-1.8,14.6,3.4,17.1,7.2c2.5,3.8,3.2,4.1,3.8,7.2c0.5,3,2.9,9.1,11.5,14.7
			c8.7,5.6,12.1,11.8,16.6,14.1c4.5,2.3,9,1.8,11.7,5c2.7,3.2,6.3,5,10.6,7c4.3,2,4.5,6.6,8.6,7.2c4.1,0.5,1.4,4.1,4,7.2
			c2.5,3,3.2,9.5,0.5,13.1c-2.7,3.6-1.3,9.7,0.5,9.7c1.8,0,5.6-6.5,6.1-10c0.5-3.6,4.1-3.4,7-7.2c2.9-3.8-4.3-4.7-5.6-9.5
			c-1.3-4.8,5.4-9.1,11.7-5.2c6.3,3.9,8.8,6.6,9.2,0.5C601,566.8,581.2,558.7,576.5,555.9z"/>
		<path class="st1" d="M606.1,526.4c-2.5,3.4-4.9,7.6-4.7,9c0.1,0.6-0.1,2-0.5,3.8c3.2,2.6,6.3,5.2,8.6,6.4c0.2,0.1,0.4,0.2,0.6,0.3
			c0.7-4,3.5-8.1,5.5-8.6C612.8,533.8,608.7,529,606.1,526.4z"/>
		<path class="st1" d="M648.8,523.4c-2.7-2.4-2.4-6.7,0-8.3c2.4-1.6,0.3-3.8,0.3-6.4c0-2.7-11.6-3.5-13.5-4
			c-1.9-0.5,1.4-7.5-1.6-7.5c-3,0-4.1-2.1-4.1-4.3c0-2.1-4.6-5.6-4.3-7c0-0.2,0.2-0.4,0.3-0.5c-1.7-0.3-3-0.5-3.4-0.6
			c-2-0.4-5.2-1.6-5.2-1.6s-7.5,2.4-12.7,4c0.3,3.2,1.2,6.6,3.2,7.3c3.9,1.4,2.4,5.3,3.9,8.7c1.5,3.4,1,18.8-1,18.8
			c-0.8,0-2.7,2-4.5,4.5c2.7,2.6,6.8,7.5,9.6,10.9c0.1,0,0.3-0.1,0.4-0.1c2.4,0,11.3,6.4,11.3,6.4s12.5-2.6,21-3.8
			c0.1-1.3,0.4-2.8,0.2-3.7c-0.3-1.6,1.6-4.8,4.1-4.8C655,531.2,651.5,525.9,648.8,523.4z"/>
	</g>
</g>
</svg>
